<?xml version="1.0" standalone="no"?>
<!DOCTYPE svg PUBLIC "-//W3C//DTD SVG 20010904//EN"
 "http://www.w3.org/TR/2001/REC-SVG-20010904/DTD/svg10.dtd">
<svg version="1.0" xmlns="http://www.w3.org/2000/svg"
 width="663.000000pt" height="663.000000pt" viewBox="0 0 663.000000 663.000000"
 preserveAspectRatio="xMidYMid meet">
<metadata>
Created by potrace 1.11, written by Peter Selinger 2001-2013
</metadata>
<g transform="translate(0.000000,663.000000) scale(0.100000,-0.100000)"
fill="#000000" stroke="none">
<path d="M2464 5968 c20 -106 20 -115 -6 -132 -34 -23 -71 -8 -88 36 -20 49
-30 60 -46 48 -30 -25 33 -123 87 -135 17 -4 39 0 58 9 39 21 39 20 33 -9 -5
-30 -46 -65 -76 -65 l-20 0 20 -20 c16 -17 25 -19 46 -11 47 18 68 57 67 125
0 76 -36 179 -63 184 -16 3 -18 0 -12 -30z"/>
<path d="M3487 5923 c-4 -3 -7 -48 -7 -100 0 -73 3 -93 14 -93 8 0 17 15 20
35 7 33 9 35 46 35 46 0 51 -5 55 -73 2 -29 4 -55 4 -59 1 -5 6 -8 11 -8 6 0
10 28 10 65 0 83 -19 108 -82 109 -43 1 -43 1 -44 39 -1 38 -14 63 -27 50z"/>
<path d="M3353 5900 c5 -18 -17 -42 -63 -70 -27 -16 6 -34 60 -32 27 0 54 4
60 7 13 8 1 35 -16 35 -8 0 -16 16 -20 40 -4 22 -11 40 -16 40 -6 0 -8 -9 -5
-20z"/>
<path d="M2850 5885 c0 -8 -7 -15 -15 -15 -8 0 -15 -9 -15 -20 0 -11 -6 -20
-12 -20 -30 0 -58 13 -58 26 0 8 -6 14 -13 14 -21 0 -60 -47 -54 -64 7 -19 37
-10 37 10 0 8 7 14 15 14 8 0 15 -7 15 -15 0 -8 6 -15 14 -15 8 0 16 -16 20
-39 3 -22 11 -41 18 -43 6 -2 14 -23 17 -46 3 -24 11 -43 16 -43 13 1 18 82 7
123 -15 57 26 152 44 104 3 -9 12 -16 20 -16 9 0 14 -11 14 -29 0 -37 10 -62
21 -55 16 10 10 79 -8 96 -10 9 -24 24 -31 32 -16 20 -52 21 -52 1z"/>
<path d="M3098 5857 c-7 -7 -21 -16 -30 -20 -12 -4 -18 -17 -18 -36 0 -43 14
-46 30 -6 12 31 18 35 52 35 33 0 40 -4 49 -27 5 -15 7 -44 4 -65 -7 -37 -8
-38 -49 -38 -33 0 -43 4 -51 22 -13 29 -35 35 -35 9 0 -58 96 -83 142 -38 20
18 24 31 22 75 -2 75 -2 75 -24 69 -12 -3 -20 0 -20 8 0 25 -50 33 -72 12z"/>
<path d="M2130 5838 c-20 -21 -25 -48 -21 -98 3 -35 79 -160 96 -160 19 0 19
31 0 56 -20 27 -19 32 14 39 35 7 81 50 81 75 0 9 -10 25 -22 36 -19 17 -21
17 -15 2 9 -26 -2 -47 -35 -64 -39 -20 -74 -11 -82 20 -8 33 10 77 34 83 24 6
26 19 4 27 -25 10 -32 7 -54 -16z"/>
<path d="M3710 5786 c0 -7 -7 -19 -15 -26 -29 -24 -18 -76 24 -120 36 -38 43
-41 83 -38 30 2 43 7 43 18 0 11 -13 16 -47 18 -34 2 -48 7 -48 18 0 7 -7 14
-15 14 -29 0 -15 28 18 35 31 6 31 7 10 17 -13 6 -23 20 -23 30 0 16 6 19 43
16 43 -3 48 -11 32 -51 -7 -16 -3 -18 26 -15 30 3 34 6 31 28 -1 13 -9 28 -17
33 -8 4 -15 15 -15 22 0 12 -15 15 -65 15 -49 0 -65 -3 -65 -14z"/>
<path d="M2689 5746 c-17 -36 -3 -113 22 -127 12 -6 24 -7 27 -3 4 4 1 9 -5
11 -8 3 -13 24 -13 58 0 30 -5 57 -10 60 -6 4 -8 11 -5 16 4 5 4 9 0 9 -3 0
-10 -11 -16 -24z"/>
<path d="M3327 5749 c-10 -37 -8 -49 8 -49 16 0 18 23 6 54 -7 18 -8 18 -14
-5z"/>
<path d="M4168 5731 c-20 -43 -23 -61 -8 -61 6 0 10 7 10 15 0 8 9 15 21 15
17 0 20 5 17 32 -4 44 -20 44 -40 -1z"/>
<path d="M1939 5727 c-67 -45 -64 -108 11 -216 28 -39 55 -71 61 -71 20 0 20
30 -1 57 l-22 28 26 10 c35 15 73 53 80 81 9 35 -18 91 -56 114 -42 26 -57 25
-99 -3z m85 -38 c46 -36 30 -100 -30 -115 -32 -8 -52 10 -60 54 -6 31 -3 39
20 59 33 28 37 28 70 2z"/>
<path d="M2955 5727 c-9 -22 -2 -62 10 -60 6 1 11 14 13 29 4 32 -14 56 -23
31z"/>
<path d="M3961 5716 c-16 -17 -21 -31 -16 -46 5 -17 10 -19 21 -9 8 6 14 18
14 25 0 18 66 19 73 2 4 -10 8 -9 16 2 16 23 13 30 -15 40 -41 16 -69 12 -93
-14z"/>
<path d="M3455 5700 c-7 -12 2 -30 16 -30 12 0 12 27 0 35 -5 3 -12 1 -16 -5z"/>
<path d="M4257 5642 c-10 -10 -17 -29 -17 -43 0 -24 38 -69 59 -69 12 0 14
-20 5 -44 -8 -21 -54 -21 -54 -1 0 8 -7 15 -16 15 -9 0 -18 9 -21 20 -5 19
-23 26 -36 14 -9 -10 4 -34 19 -34 8 0 14 -7 14 -15 0 -8 9 -15 20 -15 11 0
20 -7 20 -15 0 -10 10 -15 30 -15 20 0 30 5 30 15 0 8 7 15 15 15 10 0 15 11
15 35 0 24 -5 35 -15 35 -8 0 -15 6 -15 14 0 7 -9 16 -21 19 -16 4 -20 12 -17
33 4 34 27 44 35 15 3 -12 12 -21 19 -21 8 0 14 -7 14 -15 0 -15 25 -21 33 -7
6 9 -38 62 -53 62 -5 0 -10 5 -10 10 0 17 -36 11 -53 -8z"/>
<path d="M3914 5629 c-10 -17 13 -36 27 -22 12 12 4 33 -11 33 -5 0 -12 -5
-16 -11z"/>
<path d="M1721 5554 c-52 -43 -54 -124 -4 -170 58 -53 143 -6 143 81 0 28 12
32 30 10 17 -21 40 -19 40 3 0 11 -24 36 -57 60 -68 50 -107 54 -152 16z m78
-27 c21 -26 24 -75 7 -102 -20 -31 -39 -32 -67 -4 -17 17 -20 29 -15 58 8 52
49 78 75 48z"/>
<path d="M2486 5563 c-11 -11 -6 -23 9 -23 8 0 15 4 15 9 0 13 -16 22 -24 14z"/>
<path d="M4593 5539 c-13 -4 -23 -15 -23 -23 0 -7 -7 -16 -15 -20 -8 -3 -15
-17 -15 -31 0 -16 -6 -25 -15 -25 -10 0 -15 -10 -15 -30 0 -19 -5 -30 -14 -30
-8 0 -16 -6 -19 -14 -7 -18 29 -66 49 -66 8 0 14 -7 14 -15 0 -10 10 -15 31
-15 17 0 37 -7 45 -15 9 -8 24 -15 35 -15 11 0 22 7 25 15 4 9 19 15 35 15 19
0 29 5 29 15 0 7 8 18 18 24 24 13 24 110 0 134 -9 10 -20 26 -23 37 -3 11
-11 20 -18 20 -6 0 -20 8 -31 19 -26 23 -64 32 -93 20z m75 -39 c6 0 12 -7 12
-15 0 -8 7 -15 15 -15 8 0 15 -7 15 -15 0 -9 7 -18 15 -21 11 -5 15 -21 15
-60 0 -48 -3 -54 -30 -71 -16 -9 -30 -20 -30 -24 0 -4 -14 -9 -31 -11 -24 -4
-33 -1 -36 13 -3 10 -19 20 -39 24 -20 3 -34 12 -34 20 0 8 -7 15 -15 15 -8 0
-15 7 -15 15 0 9 7 18 15 21 8 4 15 17 15 30 0 15 6 24 15 24 8 0 17 12 21 28
8 34 33 55 59 48 11 -3 26 -6 33 -6z"/>
<path d="M2516 5478 c-3 -17 -4 -33 -1 -36 3 -3 5 2 5 11 0 10 5 17 10 17 12
0 13 27 1 34 -5 3 -11 -8 -15 -26z"/>
<path d="M1524 5479 c-3 -6 11 -28 32 -50 23 -23 34 -42 29 -47 -6 -5 -36 -32
-67 -61 l-57 -53 -44 36 c-24 20 -49 36 -56 36 -28 0 -5 -36 73 -110 46 -44
89 -94 96 -110 12 -30 33 -39 45 -20 8 12 -27 80 -54 104 -12 11 -21 24 -21
30 0 7 27 38 59 70 l60 59 26 -31 c26 -31 65 -43 65 -21 0 16 -151 179 -166
179 -7 0 -16 -5 -20 -11z"/>
<path d="M4810 5250 c0 -5 -9 -10 -20 -10 -11 0 -20 -7 -20 -15 0 -8 -7 -15
-15 -15 -20 0 -20 -59 -1 -66 8 -3 16 -14 19 -25 6 -21 41 -26 67 -9 13 9 13
11 0 20 -8 5 -25 10 -37 10 -19 0 -23 6 -23 29 0 16 6 31 15 35 8 3 15 12 15
21 0 10 10 15 30 15 20 0 30 -5 30 -15 0 -9 7 -18 15 -21 24 -10 19 -61 -6
-67 -19 -5 -21 -10 -14 -44 11 -62 29 -73 40 -24 3 16 13 35 21 42 21 18 18
85 -6 109 -11 11 -27 20 -35 20 -8 0 -15 5 -15 10 0 6 -13 10 -30 10 -16 0
-30 -4 -30 -10z"/>
<path d="M1642 5117 c-5 -7 -13 -19 -17 -27 -7 -12 -6 -13 6 -3 10 8 19 9 25
3 5 -5 14 -6 20 -2 6 4 4 13 -7 24 -13 12 -20 14 -27 5z"/>
<path d="M1416 5094 c-11 -28 -6 -71 8 -83 8 -7 27 -16 42 -20 22 -6 33 -19
50 -61 12 -30 27 -56 33 -58 15 -5 14 -99 -1 -104 -6 -2 -8 -10 -4 -16 12 -20
36 12 36 49 0 48 -21 109 -42 120 -22 12 -26 79 -5 79 15 0 71 80 62 88 -3 3
-5 0 -5 -7 0 -7 -4 -9 -10 -6 -5 3 -25 -10 -44 -30 -19 -19 -38 -35 -43 -35
-16 0 -56 48 -49 58 7 12 -3 42 -14 42 -4 0 -11 -7 -14 -16z"/>
<path d="M4978 5069 c-32 -34 -38 -48 -38 -85 0 -32 4 -44 15 -44 8 0 15 -9
15 -20 0 -17 7 -20 50 -20 28 0 50 -4 50 -10 0 -5 -22 -10 -50 -10 l-50 0 0
-40 c0 -46 9 -49 50 -18 25 18 33 20 52 10 39 -20 63 -37 71 -49 12 -20 27
-15 27 7 0 11 -7 20 -15 20 -8 0 -15 6 -15 14 0 7 -9 16 -20 19 -12 3 -20 14
-20 26 0 11 9 25 20 31 11 6 20 17 20 24 0 8 7 16 15 20 27 10 16 26 -19 26
-21 0 -36 -6 -40 -16 -4 -12 -19 -14 -63 -12 l-58 3 -3 38 c-3 31 2 43 23 63
14 13 31 24 36 24 13 0 8 32 -6 36 -5 2 -27 -15 -47 -37z"/>
<path d="M1700 5061 c0 -6 5 -13 10 -16 6 -3 10 1 10 9 0 9 -4 16 -10 16 -5 0
-10 -4 -10 -9z"/>
<path d="M3118 5048 c-21 -11 -38 -26 -38 -33 0 -7 -5 -15 -11 -17 -5 -2 -13
-22 -16 -46 -4 -33 -2 -43 11 -48 9 -3 16 -16 16 -29 0 -25 65 -105 86 -105 8
0 14 -7 14 -15 0 -9 9 -15 24 -15 13 0 26 -7 30 -15 3 -8 14 -15 24 -15 11 0
25 7 32 15 7 8 23 15 36 15 15 0 24 6 24 15 0 8 5 15 12 15 6 0 28 18 50 40
26 29 38 50 38 70 0 17 5 30 10 30 6 0 10 13 10 29 0 17 -4 33 -10 36 -5 3
-10 19 -10 36 0 24 -4 29 -24 29 -14 0 -31 7 -40 15 -8 8 -17 15 -21 15 -4 0
-13 -7 -21 -15 -9 -8 -26 -15 -40 -15 -15 0 -24 -6 -24 -15 0 -8 -6 -15 -14
-15 -8 0 -16 7 -20 15 -3 8 -14 15 -25 15 -11 0 -26 7 -35 15 -18 18 -21 18
-68 -7z m62 -23 c0 -8 5 -15 11 -15 14 0 59 -47 59 -61 0 -21 26 -7 38 21 8
17 24 33 38 36 13 3 24 12 24 20 0 8 7 14 15 14 8 0 15 -6 15 -14 0 -7 9 -16
20 -19 11 -3 20 -12 20 -21 0 -9 7 -16 15 -16 20 0 20 -49 1 -56 -8 -3 -18
-18 -21 -34 -3 -16 -13 -31 -21 -34 -8 -3 -14 -12 -14 -21 0 -8 -7 -15 -15
-15 -9 0 -18 -6 -21 -14 -3 -8 -19 -18 -35 -21 -16 -4 -29 -11 -29 -16 0 -5
-7 -9 -15 -9 -8 0 -15 4 -15 9 0 5 -14 12 -31 16 -17 4 -33 13 -36 21 -3 8
-11 14 -19 14 -8 0 -14 7 -14 15 0 8 -5 15 -11 15 -5 0 -15 14 -20 30 -6 17
-15 30 -20 30 -15 0 -10 59 7 85 9 14 23 25 30 25 8 0 14 7 14 15 0 8 7 15 15
15 8 0 15 -7 15 -15z"/>
<path d="M1104 4992 c-6 -4 -13 -15 -17 -25 -4 -9 -17 -21 -30 -26 -43 -16
-44 -119 -3 -253 34 -108 44 -114 173 -88 174 36 253 94 253 187 0 55 -11 76
-54 102 -39 25 -74 26 -120 7 -34 -14 -34 -14 -40 15 -4 20 -10 27 -21 23 -11
-5 -15 -21 -15 -60 0 -30 5 -54 10 -54 6 0 28 12 49 26 77 50 151 20 151 -62
0 -49 -14 -71 -62 -95 -36 -18 -214 -69 -244 -69 -18 0 -66 147 -72 219 -4 61
-2 68 23 93 14 15 40 30 56 33 37 8 39 35 2 35 -16 0 -33 -4 -39 -8z"/>
<path d="M4877 4873 c-17 -16 -6 -61 18 -77 28 -18 45 -21 45 -6 0 6 -7 10
-15 10 -11 0 -15 11 -15 40 0 38 -14 52 -33 33z"/>
<path d="M2423 4790 c-39 -23 -53 -48 -52 -92 l0 -33 17 25 c32 48 71 80 95
80 21 0 37 16 37 36 0 12 -69 1 -97 -16z"/>
<path d="M2550 4764 c0 -9 16 -34 35 -55 l35 -39 0 33 c0 22 -8 41 -23 55 -28
26 -47 28 -47 6z"/>
<path d="M5430 4720 c-8 -5 -23 -11 -32 -14 -10 -3 -20 -17 -24 -32 -7 -28
-37 -64 -53 -64 -5 0 -11 7 -15 15 -4 10 -20 15 -50 15 -30 0 -46 -5 -50 -15
-3 -8 -12 -15 -21 -15 -8 0 -15 -7 -15 -15 0 -9 -7 -18 -15 -21 -10 -4 -15
-21 -15 -54 0 -30 6 -52 15 -60 8 -7 15 -21 15 -31 0 -11 7 -19 15 -19 8 0 24
-9 35 -20 11 -11 33 -20 49 -20 16 0 31 -6 35 -15 8 -21 126 -22 126 -1 0 13
-48 26 -98 26 -13 0 -30 7 -38 15 -9 8 -23 15 -33 15 -10 0 -34 17 -54 37 -44
43 -51 94 -17 115 11 7 20 20 20 29 0 12 12 16 50 18 39 2 50 -1 50 -14 0 -8
7 -15 15 -15 8 0 15 -4 15 -10 0 -5 10 -10 23 -10 20 0 23 4 20 33 -3 26 4 40
35 75 21 23 44 42 50 42 6 0 31 -21 56 -46 39 -39 46 -52 46 -85 0 -21 -9 -56
-20 -76 -11 -21 -20 -52 -20 -70 0 -18 -4 -33 -8 -33 -5 0 -14 -11 -20 -24 -6
-13 -20 -27 -32 -31 -17 -5 -19 -10 -9 -21 6 -8 15 -14 20 -14 17 0 59 48 59
68 0 11 7 22 15 26 11 4 15 20 15 55 0 28 5 51 12 53 15 5 23 113 9 130 -6 7
-20 25 -32 41 -11 15 -29 27 -40 27 -10 0 -19 5 -19 10 0 12 -49 12 -70 0z"/>
<path d="M2317 4597 c-25 -21 -84 -133 -75 -143 7 -7 58 36 58 49 0 7 12 34
25 62 13 27 23 50 22 52 -2 1 -15 -8 -30 -20z"/>
<path d="M894 4568 c-25 -12 -64 -77 -64 -106 0 -16 17 -32 36 -32 2 0 4 14 4
31 0 20 10 40 29 60 25 24 35 28 63 23 54 -10 76 -30 85 -76 5 -23 14 -43 20
-45 7 -3 24 14 38 37 29 46 65 64 112 55 46 -8 75 -49 71 -99 -3 -36 -7 -41
-35 -50 -50 -14 -39 -27 20 -24 l52 3 3 52 c4 64 -19 118 -59 138 -41 22 -115
19 -155 -5 l-32 -21 -15 20 c-29 42 -124 63 -173 39z"/>
<path d="M3056 4555 c-3 -8 -15 -15 -26 -15 -11 0 -20 -7 -20 -15 0 -8 -4 -15
-9 -15 -5 0 -13 -10 -17 -22 -7 -22 -15 -34 -46 -69 -10 -10 -18 -23 -18 -29
0 -14 -63 -23 -142 -18 -62 3 -77 8 -100 29 -16 15 -28 31 -28 36 0 6 -7 16
-15 23 -13 11 -15 8 -15 -19 0 -21 5 -31 15 -31 8 0 15 -9 15 -20 0 -11 7 -20
15 -20 8 0 15 -7 15 -15 0 -13 21 -15 126 -15 l125 0 14 34 c8 18 21 36 30 39
8 4 15 13 15 22 0 8 4 15 8 15 4 0 13 14 19 30 6 17 18 30 27 30 9 0 16 7 16
15 0 11 11 15 39 15 25 0 41 -5 45 -15 3 -8 12 -15 21 -15 8 0 15 -6 15 -12 0
-16 44 -58 59 -58 6 0 11 -7 11 -15 0 -9 7 -18 15 -21 8 -4 15 -12 15 -20 0
-17 118 -12 152 8 16 9 89 14 251 18 306 7 304 24 -3 28 -194 2 -230 0 -230
-12 0 -10 -17 -15 -62 -18 -79 -4 -108 1 -108 18 0 8 -7 14 -15 14 -8 0 -15 9
-15 20 0 11 -7 20 -15 20 -8 0 -15 7 -15 15 0 8 -9 15 -20 15 -11 0 -20 7 -20
15 0 8 -9 15 -19 15 -10 0 -21 7 -25 15 -3 9 -18 15 -40 15 -21 0 -36 -6 -40
-15z"/>
<path d="M1450 4444 c-19 -20 -48 -42 -65 -49 l-30 -13 33 -1 c22 -1 32 4 32
14 0 8 9 15 20 15 11 0 20 7 20 15 0 8 7 15 15 15 8 0 15 9 15 20 0 11 -1 20
-2 20 -2 0 -19 -16 -38 -36z"/>
<path d="M1970 4416 c0 -19 99 -29 155 -15 25 6 42 15 39 20 -3 5 -48 9 -100
9 -73 0 -94 -3 -94 -14z"/>
<path d="M3940 4396 c0 -14 29 -26 68 -26 12 0 25 -7 28 -15 4 -9 19 -15 40
-15 24 0 34 -5 34 -15 0 -10 10 -15 30 -15 19 0 30 -5 30 -14 0 -8 9 -18 20
-21 11 -3 20 -11 20 -16 0 -5 6 -9 13 -9 14 0 117 -96 117 -109 0 -4 16 -24
35 -44 19 -20 35 -45 35 -57 0 -11 7 -23 15 -26 9 -4 15 -19 15 -35 0 -16 6
-32 14 -35 8 -3 17 -25 21 -50 4 -28 11 -44 21 -44 19 0 19 73 -1 90 -8 7 -15
23 -15 36 0 13 -9 29 -20 36 -12 8 -20 24 -20 40 0 18 -5 28 -15 28 -8 0 -15
5 -15 10 0 14 -41 72 -57 83 -7 4 -13 15 -13 22 0 8 -7 15 -15 15 -8 0 -15 7
-15 15 0 9 -8 19 -17 22 -10 4 -20 9 -23 12 -12 14 -70 51 -80 51 -5 0 -10 7
-10 15 0 9 -9 15 -21 15 -11 0 -32 9 -46 20 -14 11 -34 20 -45 20 -11 0 -26 7
-34 15 -20 19 -94 20 -94 1z"/>
<path d="M2226 4391 c-11 -4 -21 -18 -23 -31 -6 -41 -22 -50 -87 -51 -33 0
-83 -7 -111 -14 -48 -12 -44 -13 83 -11 l133 1 19 55 c11 30 19 56 20 58 0 4
-14 1 -34 -7z"/>
<path d="M2515 4360 c-27 -29 -10 -74 28 -78 37 -4 57 13 57 49 0 47 -53 65
-85 29z"/>
<path d="M1100 4350 c0 -5 7 -10 15 -10 8 0 15 -4 15 -10 0 -5 9 -10 20 -10
28 0 25 15 -5 28 -32 15 -45 15 -45 2z"/>
<path d="M1230 4305 c-13 -14 -31 -25 -39 -25 -9 0 -29 -9 -46 -20 -29 -19
-29 -19 -61 0 -22 14 -49 20 -91 20 -40 0 -65 5 -72 14 -7 8 -21 12 -33 8 -19
-4 -19 -6 -5 -17 14 -10 14 -13 -4 -25 -16 -12 -19 -27 -19 -96 0 -60 4 -85
15 -94 8 -7 15 -20 15 -29 0 -9 16 -29 35 -45 19 -16 35 -35 35 -43 0 -7 6
-13 14 -13 8 0 16 -7 20 -15 3 -8 12 -15 21 -15 8 0 15 -7 15 -15 0 -11 12
-15 50 -15 38 0 50 4 50 15 0 8 5 15 10 15 6 0 19 9 30 20 11 11 27 20 35 20
8 0 15 7 15 15 0 8 9 15 20 15 11 0 20 7 20 15 0 8 7 15 15 15 8 0 15 7 15 15
0 9 7 18 15 21 8 3 17 21 21 40 3 19 10 34 14 34 4 0 7 14 8 30 0 17 -4 30 -9
30 -5 0 -9 -13 -9 -29 0 -20 -6 -30 -20 -34 -11 -3 -20 -12 -20 -21 0 -31 -85
-116 -115 -116 -8 0 -15 -7 -15 -15 0 -8 -6 -15 -13 -15 -8 0 -22 -9 -32 -20
-26 -29 -85 -24 -85 6 0 8 -7 14 -15 14 -8 0 -15 7 -15 15 0 8 -5 15 -11 15
-18 0 -59 43 -59 62 0 9 -7 24 -16 32 -10 11 -16 38 -17 83 -2 59 1 71 21 91
27 27 99 32 108 7 4 -8 11 -15 18 -15 7 0 16 -15 21 -32 11 -38 50 -52 62 -22
15 39 42 54 98 54 53 0 55 -1 70 -36 8 -19 19 -33 25 -29 18 11 9 75 -12 75
-5 0 -16 7 -25 15 -13 14 -13 18 1 40 16 24 16 25 -7 25 -13 0 -34 -11 -47
-25z"/>
<path d="M5604 4295 c-4 -8 -12 -15 -20 -15 -8 0 -14 -7 -14 -15 0 -10 -11
-15 -35 -15 -19 0 -35 4 -35 10 0 14 -65 23 -115 16 -29 -5 -45 -12 -45 -22 0
-8 -7 -14 -15 -14 -17 0 -16 1 -21 -90 -2 -54 1 -68 17 -83 10 -10 19 -22 19
-27 0 -15 43 -57 67 -64 11 -4 24 -13 27 -21 3 -8 12 -15 21 -15 8 0 15 -7 15
-15 0 -8 8 -15 19 -15 10 0 24 -7 31 -15 7 -8 27 -15 45 -15 20 0 35 6 39 15
3 8 11 15 19 15 15 0 117 101 117 117 0 6 7 13 15 17 11 4 15 20 15 56 0 27 5
50 10 50 6 0 9 15 9 33 -1 27 -2 28 -6 7 -3 -14 -13 -32 -24 -41 -12 -9 -23
-32 -26 -57 -4 -26 -11 -42 -19 -42 -8 0 -14 -9 -14 -20 0 -11 -7 -20 -15 -20
-8 0 -15 -7 -15 -15 0 -8 -5 -15 -11 -15 -15 0 -59 -42 -59 -57 0 -19 -59 -16
-66 2 -4 8 -12 15 -20 15 -8 0 -22 9 -31 20 -10 11 -21 20 -25 20 -12 0 -88
76 -88 88 0 7 -7 12 -15 12 -12 0 -15 13 -15 60 0 78 19 100 88 100 43 0 52
-4 79 -35 38 -42 63 -46 63 -9 0 41 42 74 94 74 43 0 66 -15 79 -52 11 -30 27
-20 27 16 0 25 -5 36 -19 41 -11 3 -22 12 -25 20 -8 21 -114 21 -122 0z"/>
<path d="M2290 4245 c0 -23 -5 -35 -14 -35 -7 0 -16 -13 -19 -29 -6 -27 -9
-29 -66 -33 -90 -6 -99 -26 -16 -35 41 -5 45 -8 45 -33 0 -31 -18 -40 -87 -40
-23 0 -48 -3 -57 -6 -31 -12 -4 -24 55 -24 l59 0 0 -65 c0 -64 12 -86 24 -42
3 12 6 41 6 65 0 23 4 42 8 42 14 0 32 48 32 84 0 21 6 36 15 40 9 3 15 18 15
40 0 21 6 36 15 40 9 3 15 18 15 36 0 20 -5 30 -15 30 -10 0 -15 -11 -15 -35z"/>
<path d="M3388 4173 c-45 -5 -50 -19 -10 -27 48 -11 197 2 197 16 0 13 -108
20 -187 11z"/>
<path d="M2550 4095 c0 -8 -7 -15 -15 -15 -8 0 -15 -7 -15 -15 0 -9 7 -18 15
-21 8 -4 15 -12 15 -20 0 -20 27 -17 50 6 23 23 26 50 6 50 -8 0 -16 7 -20 15
-3 8 -12 15 -21 15 -8 0 -15 -7 -15 -15z"/>
<path d="M2790 4085 c0 -15 -7 -40 -16 -56 -8 -17 -12 -34 -8 -37 4 -4 9 -1
11 6 3 6 20 12 39 12 36 0 49 25 19 36 -9 4 -15 19 -15 35 0 19 -5 29 -15 29
-9 0 -15 -9 -15 -25z"/>
<path d="M3042 4099 c-29 -11 -35 -29 -22 -63 8 -22 15 -27 38 -24 22 2 28 9
30 33 4 42 -16 66 -46 54z"/>
<path d="M3350 4060 c0 -5 23 -10 50 -10 28 0 50 5 50 10 0 6 -22 10 -50 10
-27 0 -50 -4 -50 -10z"/>
<path d="M3515 4040 l-40 -6 28 -12 c42 -18 79 -16 75 5 -4 20 -12 22 -63 13z"/>
<path d="M1990 3995 c0 -12 7 -15 25 -13 14 2 26 8 26 13 0 6 -12 11 -26 13
-18 2 -25 -1 -25 -13z"/>
<path d="M1224 3896 c-4 -10 -18 -16 -35 -16 -19 0 -29 -5 -29 -15 0 -8 -7
-15 -15 -15 -8 0 -15 -9 -15 -20 0 -13 -7 -20 -19 -20 -11 0 -22 -6 -25 -12
-5 -10 -7 -10 -12 0 -3 6 -11 12 -19 12 -7 0 -19 9 -26 20 -11 17 -21 19 -46
14 -42 -8 -33 -34 13 -34 22 0 34 -5 34 -14 0 -8 7 -16 15 -20 8 -3 15 -13 15
-21 0 -12 8 -15 33 -13 28 3 32 7 35 36 2 20 9 32 18 32 8 0 14 6 14 14 0 8
14 17 30 21 17 4 30 13 30 20 0 8 9 15 20 17 24 4 28 22 5 26 -8 2 -18 -4 -21
-12z"/>
<path d="M5374 3896 c-3 -9 -18 -16 -31 -16 -15 0 -36 -11 -49 -26 -21 -22
-24 -35 -24 -103 0 -58 4 -82 15 -91 8 -7 15 -18 15 -26 0 -7 9 -18 20 -24 11
-6 20 -20 20 -31 0 -11 7 -22 15 -25 8 -4 15 -11 15 -18 0 -7 13 -23 30 -36
16 -14 29 -31 30 -38 0 -9 14 -12 48 -10 54 3 59 20 9 29 -41 7 -99 65 -120
122 -3 9 -11 17 -17 17 -5 0 -10 6 -10 14 0 7 -6 19 -14 25 -31 26 -31 181 0
181 8 0 23 9 34 20 11 11 31 20 44 20 15 0 26 -7 29 -20 3 -11 12 -20 21 -20
9 0 16 -7 16 -15 0 -8 7 -15 15 -15 8 0 15 -6 15 -12 1 -19 36 -58 52 -58 7 0
24 16 38 34 20 27 34 35 71 40 61 8 106 -2 112 -25 3 -10 12 -19 20 -19 10 0
13 -8 10 -24 -3 -13 0 -32 5 -42 10 -17 11 -16 17 7 7 28 -16 82 -50 115 -28
29 -175 29 -175 1 0 -7 -12 -17 -25 -24 -24 -10 -29 -8 -68 33 -23 24 -49 44
-59 44 -9 0 -18 4 -20 9 -1 4 -13 12 -26 15 -15 5 -24 3 -28 -8z"/>
<path d="M1284 3864 c3 -9 6 -18 6 -20 0 -2 6 -4 13 -4 7 0 18 -13 24 -30 15
-41 33 -38 33 5 0 24 -5 35 -15 35 -8 0 -15 7 -15 15 0 9 -10 15 -26 15 -20 0
-25 -4 -20 -16z"/>
<path d="M2163 3854 c-9 -34 -9 -191 0 -201 15 -15 22 13 25 108 3 63 0 105
-6 111 -8 8 -13 2 -19 -18z"/>
<path d="M863 3830 c-3 -11 -12 -20 -19 -20 -21 0 -20 -166 1 -174 8 -3 15
-14 15 -25 0 -12 9 -23 23 -27 12 -4 28 -15 35 -25 7 -11 20 -19 28 -19 8 0
14 -4 14 -9 0 -5 16 -12 35 -15 21 -4 35 -13 35 -21 0 -11 12 -15 40 -15 22 0
40 4 40 8 0 16 -25 32 -51 32 -15 0 -29 7 -33 15 -3 8 -16 15 -30 15 -13 0
-26 7 -30 15 -3 8 -12 15 -21 15 -8 0 -15 7 -15 15 0 8 -6 15 -12 15 -7 0 -23
11 -35 24 -20 20 -23 35 -23 95 0 59 3 73 18 77 9 3 28 10 42 16 l25 11 -25 8
c-41 12 -52 10 -57 -11z"/>
<path d="M4515 3828 c-10 -24 -1 -153 10 -153 13 0 19 145 6 158 -7 7 -12 5
-16 -5z"/>
<path d="M1372 3750 c0 -14 2 -19 5 -12 2 6 2 18 0 25 -3 6 -5 1 -5 -13z"/>
<path d="M1330 3694 c-6 -14 -10 -30 -10 -35 0 -5 -5 -9 -10 -9 -6 0 -15 -10
-21 -22 -20 -45 -35 -67 -67 -94 -18 -16 -32 -34 -32 -41 0 -6 -15 -13 -32
-15 -42 -4 -43 -22 -1 -26 31 -3 73 24 73 48 0 6 7 10 15 10 8 0 15 7 15 15 0
8 7 15 15 15 8 0 15 9 15 20 0 11 5 20 11 20 5 0 15 13 20 29 6 16 17 32 25
35 16 6 20 76 4 76 -6 0 -15 -12 -20 -26z"/>
<path d="M2905 3687 c-11 -12 -25 -31 -30 -42 -10 -19 -23 -20 -176 -25 -140
-4 -168 -8 -183 -22 -10 -10 -26 -18 -37 -18 -11 0 -22 -7 -25 -15 -4 -8 -11
-15 -17 -15 -17 0 -77 -44 -77 -56 0 -6 -9 -19 -20 -29 -11 -10 -20 -24 -20
-30 0 -7 -7 -15 -15 -19 -9 -3 -15 -19 -15 -41 0 -22 -6 -38 -14 -41 -9 -3
-17 -27 -22 -60 -6 -53 -19 -69 -30 -39 -4 8 -12 15 -20 15 -19 0 -18 -59 1
-66 8 -4 15 -16 15 -29 0 -12 6 -28 14 -34 8 -6 17 -31 20 -55 4 -25 13 -47
21 -50 8 -3 15 -17 15 -31 0 -50 105 -165 151 -165 6 0 22 -9 36 -20 17 -13
41 -20 69 -20 25 0 44 -5 46 -12 7 -21 252 -25 282 -5 18 12 65 16 228 19 179
3 208 5 225 21 11 9 29 17 41 17 11 0 24 5 27 10 3 6 12 10 20 10 8 0 25 4 40
10 21 8 24 13 16 27 -12 21 12 73 34 73 8 0 15 7 15 15 0 8 5 15 10 15 17 0
11 -61 -10 -89 l-19 -28 24 -22 c14 -11 29 -21 35 -21 5 0 13 -8 19 -17 9 -16
30 -18 220 -18 184 1 212 3 229 18 12 11 35 17 70 17 40 0 52 4 52 15 0 10 10
15 29 15 16 0 34 7 41 15 7 8 21 15 32 15 11 0 22 9 25 20 3 11 11 20 17 20
15 0 116 96 116 110 0 6 7 13 15 16 8 4 15 14 15 24 0 9 9 25 21 36 15 13 19
26 15 46 -5 23 -2 28 14 28 16 0 20 7 20 38 0 55 -15 71 -29 31 -6 -17 -11
-40 -11 -49 0 -10 -7 -23 -15 -30 -8 -7 -15 -23 -15 -36 0 -13 -4 -24 -9 -24
-5 0 -13 -10 -17 -22 -7 -24 -118 -138 -134 -138 -5 0 -10 -7 -10 -15 0 -9 -9
-15 -25 -15 -14 0 -28 -7 -31 -15 -4 -8 -12 -15 -18 -15 -7 0 -21 -8 -32 -18
-11 -11 -42 -21 -69 -24 -27 -4 -51 -11 -53 -16 -2 -7 -82 -11 -222 -12 l-218
-1 -26 26 c-33 33 -33 50 2 80 33 29 78 32 122 8 29 -17 31 -17 41 0 13 22 87
24 95 2 4 -9 19 -15 40 -15 24 0 34 5 34 15 0 26 55 19 68 -9 14 -31 52 -44
64 -22 5 10 22 16 42 16 19 0 39 7 46 15 7 8 19 15 27 15 16 0 93 59 93 72 0
4 14 21 30 36 17 16 30 38 30 50 0 11 6 23 13 25 10 4 10 6 0 6 -17 1 -17 100
-1 136 9 19 9 28 0 37 -7 7 -12 24 -12 39 0 21 -5 28 -22 31 -14 2 -29 15 -38
35 -8 18 -21 33 -27 33 -7 0 -13 7 -13 15 0 8 -9 15 -19 15 -11 0 -21 6 -24
13 -4 10 -7 10 -18 0 -21 -20 -77 -16 -96 7 -10 11 -25 20 -34 20 -10 0 -20 6
-23 13 -5 10 -7 10 -12 0 -7 -15 -74 -18 -74 -3 0 6 -7 10 -15 10 -8 0 -15 9
-15 20 0 16 -7 20 -35 20 -19 0 -35 -5 -35 -11 0 -20 -45 -48 -78 -49 -25 0
-40 8 -59 30 -29 35 -48 38 -63 10 -6 -11 -17 -20 -25 -20 -9 0 -15 -10 -15
-25 0 -14 -7 -28 -15 -31 -8 -4 -15 -12 -15 -20 0 -9 -11 -14 -31 -14 -30 0
-31 2 -25 31 5 25 2 32 -14 36 -11 3 -20 14 -20 24 0 10 -4 21 -10 24 -5 3
-17 21 -26 40 -9 19 -20 35 -25 35 -5 0 -9 9 -9 20 0 11 -7 20 -15 20 -8 0
-15 7 -15 15 0 26 -84 20 -114 -9 -15 -13 -26 -28 -26 -35 0 -6 -7 -11 -15
-11 -8 0 -15 -4 -15 -10 0 -6 -26 -10 -59 -10 -53 0 -60 2 -67 23 -20 63 -107
89 -149 44z m88 -27 c9 -11 17 -25 17 -30 0 -6 6 -13 14 -16 8 -3 20 -19 26
-35 11 -25 17 -29 54 -29 23 0 48 6 55 13 11 10 14 10 18 0 12 -33 43 -5 43
38 0 10 5 19 10 19 6 0 15 11 20 24 5 13 19 27 31 31 18 6 30 -1 59 -33 21
-22 40 -52 44 -66 3 -14 11 -26 16 -26 6 0 10 -8 10 -19 0 -10 9 -30 20 -44
11 -14 20 -36 20 -49 0 -13 4 -28 10 -34 5 -5 14 -39 19 -74 5 -36 14 -78 20
-93 16 -41 14 -142 -4 -184 -8 -19 -15 -44 -15 -54 0 -9 -7 -24 -15 -33 -8 -8
-15 -18 -15 -22 0 -14 -81 -84 -105 -90 -13 -3 -29 -12 -36 -20 -18 -22 -419
-21 -419 1 0 8 -4 15 -9 15 -5 0 -17 7 -26 16 -8 9 -35 18 -58 21 -23 4 -45
10 -48 16 -4 5 -35 12 -70 16 -35 4 -74 12 -86 19 -12 7 -40 12 -62 12 -39 0
-41 -2 -41 -29 0 -16 -3 -36 -6 -45 -8 -20 -53 -21 -60 -1 -4 8 -10 15 -15 15
-11 0 -49 37 -49 48 0 4 -9 15 -20 25 -11 9 -20 28 -20 41 0 14 -7 31 -15 40
-12 11 -15 42 -15 139 0 102 3 126 15 131 9 3 15 18 15 34 0 16 9 37 20 47 11
10 20 26 20 37 0 10 7 18 15 18 8 0 15 7 15 15 0 8 7 15 15 15 8 0 15 7 15 15
0 8 7 15 15 15 7 0 18 7 23 16 8 14 12 14 43 -3 45 -26 83 -17 87 20 3 22 8
27 30 27 19 0 30 -7 37 -22 10 -24 65 -39 65 -19 0 6 7 11 15 11 8 0 15 7 15
15 0 16 18 19 87 15 38 -2 44 1 53 24 5 14 14 26 20 26 5 0 10 6 10 14 0 18
27 46 43 46 7 0 20 -9 30 -20z m875 -132 c7 -7 12 -27 12 -45 0 -26 4 -33 20
-33 11 0 29 8 39 18 52 46 61 51 61 27 0 -8 6 -15 14 -15 7 0 21 -12 31 -26
11 -17 20 -22 28 -16 7 5 29 12 51 15 49 8 86 -14 86 -52 0 -30 16 -51 38 -51
16 0 62 -45 62 -61 0 -5 -7 -9 -15 -9 -8 0 -15 -7 -15 -15 0 -8 -6 -15 -14
-15 -23 0 -31 -22 -13 -35 9 -6 19 -23 22 -38 4 -15 15 -32 24 -37 15 -9 14
-9 -1 -10 -10 0 -18 -4 -18 -9 0 -15 -113 -125 -142 -138 -16 -7 -28 -17 -28
-23 0 -5 -16 -10 -35 -10 -24 0 -35 5 -35 15 0 8 9 15 20 15 11 0 20 6 20 14
0 8 7 16 15 20 16 6 20 41 6 50 -5 4 -22 -6 -38 -21 -68 -66 -67 -65 -93 -43
-30 26 -60 26 -60 1 0 -10 -11 -26 -26 -35 -24 -16 -26 -16 -49 6 -14 13 -25
29 -25 36 0 21 -25 13 -52 -19 -26 -29 -28 -30 -53 -13 -14 9 -25 22 -25 30 0
23 -19 25 -37 4 -20 -23 -92 -29 -94 -7 0 6 -2 76 -3 155 -2 93 -6 146 -14
154 -18 18 -16 108 3 108 8 0 15 4 15 9 0 5 11 12 25 15 18 5 28 17 36 46 7
22 15 40 18 40 16 -1 40 -29 46 -53 8 -29 35 -37 35 -11 0 13 7 15 33 10 17
-4 34 -11 35 -16 8 -23 32 -9 32 19 0 57 27 80 58 49z m-1240 -681 c3 -25 0
-27 -32 -27 -55 0 -67 8 -53 33 17 31 26 36 56 28 19 -5 27 -15 29 -34z m150
-29 c3 -26 1 -28 -37 -28 -32 0 -41 4 -46 21 -9 27 10 40 50 37 25 -3 31 -8
33 -30z"/>
<path d="M2725 3512 c-3 -3 -5 -18 -5 -34 0 -25 3 -28 34 -28 19 0 41 -3 50
-6 32 -12 15 -24 -34 -24 -44 0 -50 -3 -50 -20 0 -19 5 -21 67 -18 l68 3 0 44
c0 33 -5 47 -20 57 -24 15 -102 34 -110 26z"/>
<path d="M3137 3459 c-10 -11 -20 -33 -24 -50 l-5 -29 51 0 c43 0 51 3 51 19
0 10 -7 21 -15 25 -8 3 -15 17 -15 31 0 30 -19 32 -43 4z"/>
<path d="M2984 3444 c-8 -31 6 -47 37 -42 36 5 38 45 4 58 -35 13 -34 14 -41
-16z"/>
<path d="M3272 3450 c-11 -17 -9 -24 8 -42 19 -21 20 -21 42 -2 13 10 25 20
28 22 6 5 -42 41 -55 42 -6 0 -16 -9 -23 -20z"/>
<path d="M3606 3372 c-2 -4 2 -16 10 -27 13 -17 16 -18 24 -5 15 24 12 40 -9
40 -11 0 -22 -3 -25 -8z"/>
<path d="M3695 3360 c-22 -24 -13 -50 18 -50 32 0 47 19 36 48 -10 27 -30 28
-54 2z"/>
<path d="M3780 3366 c0 -14 21 -26 46 -26 8 0 14 9 14 20 0 16 -7 20 -30 20
-19 0 -30 -5 -30 -14z"/>
<path d="M5770 3666 c0 -29 -55 -86 -82 -86 -10 0 -18 -6 -18 -14 0 -8 -15
-17 -35 -20 -19 -4 -35 -11 -35 -16 0 -6 -9 -10 -19 -10 -30 0 -51 -11 -51
-26 0 -20 66 -19 74 1 3 8 17 15 31 15 14 0 28 6 31 14 3 8 18 18 34 21 16 3
31 13 34 21 3 8 12 14 21 14 8 0 15 9 15 20 0 11 7 20 15 20 10 0 15 11 15 35
0 24 -5 35 -15 35 -9 0 -15 -9 -15 -24z"/>
<path d="M4541 3560 c2 -76 10 -99 23 -64 3 9 6 37 6 64 0 53 -7 80 -22 80 -5
0 -8 -35 -7 -80z"/>
<path d="M3506 3531 c-8 -12 20 -22 39 -15 19 8 9 24 -15 24 -10 0 -21 -4 -24
-9z"/>
<path d="M1333 3483 c-29 -3 -43 -9 -43 -19 0 -8 -7 -14 -15 -14 -8 0 -15 -7
-15 -15 0 -8 -6 -15 -14 -15 -7 0 -16 -9 -19 -20 -6 -24 -67 -29 -67 -6 0 10
-16 17 -45 22 -58 8 -115 -2 -115 -21 0 -8 -9 -15 -20 -15 -18 0 -20 -7 -20
-80 0 -62 4 -84 18 -99 9 -11 22 -26 29 -33 29 -33 62 -58 77 -58 9 0 16 -4
16 -9 0 -5 13 -12 29 -16 16 -3 32 -13 35 -21 3 -8 15 -14 27 -14 11 0 32 -9
46 -20 17 -13 41 -20 70 -20 36 0 46 4 50 20 3 11 12 20 19 20 8 0 14 8 14 18
0 11 9 27 20 37 11 10 20 24 20 32 0 7 7 13 15 13 10 0 15 10 15 30 0 20 5 30
15 30 13 0 15 20 15 120 0 100 -2 120 -15 120 -8 0 -15 7 -15 15 0 10 -10 15
-29 15 -16 0 -35 1 -43 3 -7 2 -32 2 -55 0z m82 -33 c34 0 45 -30 45 -121 0
-77 -3 -92 -20 -106 -11 -10 -20 -28 -20 -40 0 -14 -6 -23 -15 -23 -8 0 -15
-9 -15 -20 0 -11 -5 -20 -10 -20 -6 0 -14 -8 -17 -17 -21 -54 -80 -70 -123
-33 -13 11 -33 20 -45 20 -13 0 -25 7 -29 15 -3 8 -14 15 -24 15 -11 0 -25 7
-32 15 -7 8 -19 15 -27 15 -7 0 -16 7 -19 15 -4 8 -12 15 -20 15 -8 0 -14 9
-14 20 0 11 -6 20 -14 20 -34 0 -30 106 5 141 24 24 114 27 123 4 3 -8 12 -15
19 -15 8 0 21 -10 30 -22 20 -30 47 -15 64 36 22 65 78 103 131 89 8 -1 20 -3
27 -3z"/>
<path d="M5208 3483 c-23 -3 -38 -9 -38 -18 0 -7 -7 -15 -15 -19 -12 -4 -15
-25 -15 -99 0 -72 4 -98 15 -107 8 -7 15 -23 15 -35 0 -13 6 -25 14 -28 7 -3
16 -19 19 -36 4 -17 13 -31 21 -31 7 0 17 -8 20 -17 15 -41 38 -72 57 -78 33
-11 109 4 109 21 0 9 11 14 30 14 18 0 33 6 36 15 4 8 17 15 30 15 14 0 27 6
30 14 3 8 19 18 35 21 16 4 29 13 29 21 0 8 6 14 13 14 21 0 57 46 57 73 0 14
7 27 15 31 9 3 15 18 15 36 0 18 -6 33 -15 36 -8 4 -15 17 -15 30 0 14 -6 24
-14 24 -7 0 -16 9 -19 20 -4 17 -14 20 -66 20 -48 0 -65 -4 -81 -20 -23 -23
-80 -28 -80 -7 0 8 -16 30 -35 50 -27 28 -44 37 -70 37 -18 0 -39 1 -47 3 -7
2 -30 2 -50 0z m138 -59 c12 -12 24 -34 28 -48 3 -14 11 -26 16 -26 6 0 10 -6
10 -14 0 -26 21 -29 44 -7 12 12 30 21 39 21 9 0 17 7 17 15 0 12 13 15 60 15
56 0 61 -2 73 -27 6 -16 17 -32 24 -36 21 -13 16 -55 -7 -62 -11 -3 -20 -12
-20 -20 0 -20 -64 -85 -84 -85 -9 0 -16 -7 -16 -15 0 -9 -9 -15 -24 -15 -13 0
-29 -7 -36 -15 -7 -8 -22 -15 -34 -15 -12 0 -29 -9 -39 -20 -11 -13 -29 -20
-51 -20 -26 0 -36 5 -41 20 -3 11 -13 20 -21 20 -8 0 -14 7 -14 15 0 9 -7 18
-15 21 -8 4 -15 17 -15 30 0 14 -6 24 -14 24 -8 0 -17 15 -20 35 -4 21 -13 35
-21 35 -12 0 -15 16 -15 78 0 69 3 81 23 99 12 12 31 23 42 25 37 8 90 -5 111
-28z"/>
<path d="M2155 3406 c-9 -58 2 -126 21 -126 11 0 14 15 14 63 0 106 -23 147
-35 63z"/>
<path d="M4516 3428 c-3 -13 -6 -51 -6 -86 0 -47 3 -63 13 -60 14 5 23 168 9
168 -6 0 -12 -10 -16 -22z"/>
<path d="M848 3089 c-23 -25 -25 -109 -3 -109 9 0 15 -9 15 -25 0 -14 -7 -28
-15 -31 -10 -4 -15 -20 -15 -45 0 -31 5 -42 28 -56 15 -10 33 -23 40 -30 7 -7
18 -13 23 -13 5 0 9 -29 9 -65 0 -58 2 -65 20 -65 11 0 20 -4 20 -9 0 -5 11
-12 25 -15 37 -9 65 -42 65 -76 0 -27 -3 -30 -30 -30 -17 0 -39 -9 -50 -20
-11 -11 -27 -20 -35 -20 -10 0 -15 -10 -15 -30 0 -20 -5 -30 -15 -30 -11 0
-15 -11 -15 -35 0 -22 6 -38 15 -41 8 -4 15 -17 15 -30 0 -19 5 -24 25 -24 14
0 25 3 25 6 0 4 -11 17 -25 30 -29 27 -35 88 -10 98 8 3 15 12 15 21 0 8 7 15
15 15 8 0 15 4 15 9 0 10 73 23 115 20 17 -1 40 -2 51 -3 27 -1 65 -46 52 -60
-34 -42 -58 -66 -66 -66 -5 0 -12 -9 -15 -20 -4 -14 -14 -20 -34 -20 -15 0
-35 -4 -43 -10 -11 -7 -9 -11 12 -19 20 -7 29 -20 34 -46 10 -55 34 -38 34 25
0 15 7 33 15 40 8 7 15 19 15 26 0 8 6 14 13 14 7 0 20 9 30 20 11 13 29 20
50 20 l34 0 6 -75 c7 -97 -2 -185 -19 -192 -8 -3 -14 -11 -14 -19 0 -8 -7 -14
-15 -14 -8 0 -24 -5 -34 -11 -27 -17 -75 7 -90 45 -12 29 -13 29 -21 11 -14
-32 -11 -42 10 -48 11 -3 20 -12 20 -21 0 -9 7 -16 15 -16 8 0 15 -6 15 -14 0
-8 -7 -21 -15 -30 -8 -8 -15 -21 -15 -29 0 -8 -9 -17 -20 -20 -14 -3 -20 -14
-20 -31 0 -15 -7 -29 -15 -32 -11 -5 -15 -21 -15 -60 0 -42 4 -55 19 -64 28
-15 51 -12 51 5 0 11 12 15 51 15 43 0 52 3 56 20 4 13 11 19 22 15 22 -6 77
10 74 22 -1 6 16 10 38 9 29 0 43 4 50 17 6 9 17 17 24 17 8 0 15 7 15 15 0 8
7 15 15 15 8 0 15 9 15 20 0 11 6 20 14 20 7 0 16 14 20 30 6 35 19 38 48 11
25 -24 20 -56 -17 -95 -29 -32 -36 -100 -10 -110 8 -3 15 -15 15 -26 0 -11 7
-20 16 -20 20 0 44 -24 44 -44 0 -11 -9 -16 -30 -16 -20 0 -30 -5 -30 -15 0
-8 -9 -15 -20 -15 -11 0 -20 -7 -20 -15 0 -8 -7 -15 -15 -15 -8 0 -15 -9 -15
-20 0 -11 -7 -20 -15 -20 -8 0 -15 -6 -15 -14 0 -8 -6 -16 -14 -19 -8 -3 -17
-20 -21 -38 -4 -18 -14 -39 -21 -47 -16 -15 -19 -98 -5 -107 14 -8 21 9 28 66
3 29 12 53 19 56 8 3 14 16 14 29 0 13 5 24 10 24 6 0 14 8 17 17 12 30 92
103 113 103 12 0 28 7 36 15 22 22 269 22 290 0 9 -8 28 -15 43 -15 18 0 34
-9 49 -29 11 -16 18 -31 15 -35 -4 -3 -51 -6 -105 -6 -78 0 -100 -3 -104 -15
-4 -8 -10 -15 -15 -15 -13 0 -59 -46 -59 -59 0 -6 -5 -11 -10 -11 -6 0 -15
-10 -21 -22 -22 -50 -66 -108 -81 -108 -5 0 -17 -9 -28 -20 -11 -11 -27 -20
-35 -20 -8 0 -15 -7 -15 -15 0 -9 -9 -15 -24 -15 -13 0 -29 -7 -36 -15 -7 -8
-18 -15 -26 -15 -7 0 -20 -7 -28 -16 -9 -8 -24 -14 -34 -12 -14 3 -18 16 -20
66 -5 95 -32 73 -32 -27 0 -30 5 -48 18 -57 24 -18 62 -18 62 1 0 11 7 14 23
10 16 -4 29 0 41 14 11 12 27 21 38 21 10 0 18 7 18 15 0 10 10 15 27 15 18 0
38 13 65 40 21 23 38 45 38 50 0 6 7 10 16 10 9 0 18 9 21 20 3 11 9 20 13 20
5 0 11 14 15 30 4 17 13 30 21 30 8 0 14 7 14 15 0 8 7 15 16 15 9 0 18 9 21
20 4 16 14 20 49 20 l44 0 0 -50 c0 -43 3 -50 20 -50 17 0 20 7 20 50 l0 50
123 0 c104 0 127 -3 155 -20 18 -11 41 -20 52 -20 24 0 100 -39 100 -51 0 -5
9 -9 20 -9 10 0 34 -16 53 -35 19 -19 39 -35 46 -35 6 0 11 -7 11 -15 0 -8 7
-15 15 -15 8 0 15 -5 15 -11 0 -6 20 -31 44 -55 50 -49 65 -82 45 -95 -16 -10
-111 -1 -119 11 -3 5 -19 12 -35 16 -16 4 -36 13 -43 21 -7 7 -22 13 -33 13
-11 0 -22 7 -25 15 -4 8 -14 15 -23 15 -19 1 -71 44 -71 60 0 5 -8 10 -19 10
-10 0 -24 7 -31 15 -7 8 -18 15 -25 15 -7 0 -19 10 -28 23 -12 17 -18 19 -27
10 -14 -13 -5 -33 16 -33 8 0 14 -7 14 -15 0 -8 7 -15 15 -15 8 0 15 -6 15
-13 0 -7 12 -18 28 -25 55 -26 72 -37 72 -49 0 -7 11 -13 25 -13 14 0 29 -8
35 -20 6 -11 21 -20 34 -20 13 0 29 -7 36 -15 7 -8 25 -15 40 -15 16 0 30 -7
34 -15 3 -10 19 -15 46 -15 27 0 43 -5 46 -15 4 -8 13 -15 21 -15 12 0 14 -8
9 -35 -6 -31 -4 -35 14 -35 11 0 20 -7 20 -15 0 -8 7 -15 15 -15 9 0 19 -8 22
-17 4 -10 12 -22 19 -28 6 -5 19 -24 29 -42 18 -31 18 -31 -10 -57 -15 -14
-38 -26 -50 -26 -13 0 -25 -7 -29 -15 -4 -10 -19 -15 -49 -15 -59 0 -83 -25
-33 -34 35 -7 89 10 80 25 -3 5 13 9 35 9 30 0 41 4 41 15 0 10 11 15 35 15
31 0 35 -3 35 -25 0 -43 28 -75 62 -73 17 1 33 8 35 15 4 10 46 13 174 13 159
0 219 9 219 32 0 16 51 8 67 -12 10 -11 23 -20 29 -20 7 0 14 -7 18 -15 4 -12
32 -15 161 -15 129 0 157 3 161 15 4 8 12 15 19 15 7 0 29 16 48 35 38 38 60
43 83 20 9 -8 25 -15 36 -15 12 0 30 -8 41 -17 19 -18 89 -24 103 -10 12 12
-3 19 -53 25 -26 2 -52 11 -56 18 -4 8 -19 14 -33 14 -22 0 -25 4 -22 33 3 28
7 32 36 35 20 2 32 9 32 18 0 8 7 14 15 14 10 0 15 11 15 35 0 33 2 35 33 35
20 0 44 -9 57 -20 13 -11 27 -20 31 -20 14 0 49 -34 49 -47 0 -7 7 -13 15 -13
8 0 15 -7 15 -15 0 -7 6 -18 14 -22 15 -9 38 -78 28 -87 -3 -3 -26 -6 -51 -6
-25 0 -63 -3 -85 -7 -38 -6 -38 -6 -15 -19 13 -7 56 -13 96 -14 63 0 72 2 78
20 3 11 11 20 16 20 5 0 9 7 9 15 0 8 -7 15 -16 15 -12 0 -15 6 -10 24 4 16 0
30 -9 40 -8 8 -15 19 -15 24 0 4 -11 19 -24 31 -14 13 -26 35 -28 49 -4 30
-70 61 -134 61 -42 1 -54 12 -54 50 0 27 33 51 69 51 19 0 34 6 37 15 4 8 16
15 28 15 11 1 39 9 61 20 22 11 46 19 53 20 6 0 12 7 12 15 0 8 9 15 20 15 11
0 23 7 26 15 4 8 17 15 30 15 15 0 24 6 24 15 0 8 5 15 11 15 7 0 26 16 45 35
18 19 38 35 44 35 15 0 8 32 -8 38 -7 2 -16 -5 -19 -17 -3 -12 -11 -21 -18
-21 -7 0 -15 -7 -19 -15 -3 -8 -10 -15 -16 -15 -14 0 -72 -41 -83 -57 -4 -7
-14 -13 -21 -13 -8 0 -19 -7 -26 -15 -7 -8 -21 -15 -32 -15 -10 0 -21 -7 -24
-15 -4 -8 -16 -15 -28 -15 -11 0 -34 -7 -51 -16 -16 -8 -48 -16 -70 -17 -38
-2 -40 0 -43 28 -2 20 4 38 18 52 11 12 20 27 20 33 0 5 7 10 15 10 8 0 15 6
15 13 0 15 44 57 59 57 6 0 11 7 11 15 0 8 7 15 15 15 8 0 24 9 35 20 11 11
27 20 35 20 8 0 15 7 15 15 0 8 9 15 19 15 11 0 26 7 35 15 8 8 23 15 34 15
11 0 40 9 65 20 39 18 63 20 159 18 l113 -3 0 -59 c0 -41 -5 -65 -17 -79 -10
-11 -18 -28 -18 -39 0 -10 -7 -18 -15 -18 -9 0 -15 -10 -15 -26 0 -15 -12 -38
-30 -56 -17 -16 -33 -40 -36 -54 -3 -13 -10 -24 -14 -24 -4 0 -25 -16 -46 -35
-21 -19 -46 -35 -56 -35 -10 0 -18 -6 -18 -14 0 -8 -14 -17 -31 -21 -17 -4
-33 -13 -36 -21 -3 -8 -19 -14 -38 -14 -46 0 -95 -11 -95 -21 0 -5 29 -9 65
-9 49 0 67 4 71 15 4 9 19 15 35 15 16 0 29 5 29 10 0 6 12 16 28 23 15 6 31
17 35 24 4 7 15 13 22 13 8 0 15 7 15 15 0 8 7 15 15 15 8 0 15 -7 15 -15 0
-8 6 -15 14 -15 8 0 16 -10 18 -22 2 -19 8 -22 32 -20 50 6 78 -6 74 -31 -3
-19 -9 -22 -48 -22 -36 0 -47 4 -56 22 -6 13 -14 20 -17 16 -11 -10 -8 -43 3
-43 6 0 10 -6 10 -14 0 -16 21 -26 55 -26 34 0 55 10 55 26 0 8 5 14 10 14 16
0 12 47 -5 54 -8 3 -15 15 -15 26 0 17 -6 20 -40 20 -31 0 -43 5 -55 24 -19
28 -11 53 24 82 25 21 26 21 39 3 8 -11 25 -19 43 -19 18 0 29 -5 29 -14 0 -7
8 -16 18 -18 15 -4 17 -13 14 -41 -4 -31 -1 -38 20 -46 31 -12 78 -3 78 15 0
8 6 14 14 14 16 0 29 41 20 65 -9 22 -54 39 -68 25 -8 -8 -4 -12 12 -16 41
-11 25 -74 -18 -74 -22 0 -29 5 -32 23 -4 24 11 68 27 79 5 4 6 11 1 15 -5 4
-11 2 -13 -4 -7 -19 -73 -17 -73 2 0 10 -11 15 -35 15 -34 0 -35 1 -35 39 0
30 5 42 25 55 30 20 60 13 75 -15 6 -10 17 -19 25 -19 7 0 16 -6 19 -12 5 -10
7 -10 12 0 3 6 12 12 21 12 16 0 52 38 53 56 0 14 -43 54 -58 54 -20 0 -13
-32 8 -37 11 -3 20 -12 20 -19 0 -8 -9 -14 -20 -14 -13 0 -20 -7 -20 -20 0
-11 -4 -20 -9 -20 -14 0 -21 55 -11 88 7 26 6 30 -8 25 -10 -3 -25 -15 -34
-27 -9 -11 -19 -18 -22 -16 -7 7 -9 46 -8 113 l2 57 45 0 c32 0 45 -4 45 -14
0 -8 9 -18 20 -21 11 -3 20 -13 20 -21 0 -8 7 -14 15 -14 8 0 15 -7 15 -15 0
-8 5 -15 11 -15 5 0 17 -16 25 -35 8 -19 19 -35 24 -35 6 0 10 -7 10 -15 0 -8
7 -15 15 -15 8 0 15 -7 15 -15 0 -9 11 -20 24 -25 13 -5 27 -14 31 -19 3 -6
15 -11 26 -11 10 0 19 -7 19 -15 0 -9 9 -15 23 -15 13 0 32 -9 42 -20 10 -11
29 -20 42 -20 12 0 23 -4 23 -10 0 -5 16 -10 35 -10 l35 0 0 89 c0 66 -4 93
-15 105 -8 8 -15 32 -15 56 0 27 -5 43 -15 46 -8 4 -15 17 -15 30 0 13 -9 28
-20 34 -11 6 -20 17 -20 25 0 18 -58 75 -75 75 -7 0 -15 7 -19 15 -3 8 -16 15
-30 15 -14 0 -27 3 -29 8 -7 9 28 52 42 52 6 0 11 6 11 13 0 7 9 18 20 25 14
8 20 23 20 48 0 40 -12 66 -46 103 -27 29 -31 51 -9 51 8 0 15 7 15 15 0 8 7
15 15 15 25 0 55 -38 55 -70 0 -20 5 -30 15 -30 8 0 15 -7 15 -15 0 -8 7 -15
15 -15 8 0 24 -9 36 -21 15 -15 28 -19 50 -14 22 5 29 3 29 -8 0 -16 46 -29
77 -21 15 4 22 0 26 -15 4 -17 13 -21 51 -21 33 0 46 4 46 14 0 15 -30 26 -72
26 -16 0 -28 4 -28 10 0 5 -22 12 -49 16 -28 4 -52 12 -55 20 -3 8 -18 14 -33
14 -35 0 -93 50 -93 79 0 12 -7 21 -16 21 -11 0 -14 8 -12 26 3 23 12 30 73
50 85 29 103 29 135 4 14 -11 33 -20 43 -20 9 0 17 -4 17 -10 0 -5 11 -12 24
-16 14 -3 29 -18 36 -35 7 -16 16 -29 21 -29 5 0 9 -9 9 -20 0 -11 6 -20 14
-20 9 0 16 -19 21 -57 6 -51 5 -59 -14 -74 -18 -14 -18 -18 -5 -23 27 -10 44
-7 51 12 4 9 11 21 17 25 8 6 7 10 -1 14 -7 2 -13 22 -13 43 0 21 -7 45 -15
53 -7 8 -17 26 -21 41 -3 14 -12 26 -20 26 -8 0 -14 9 -14 20 0 11 -4 20 -10
20 -20 0 -10 27 15 40 14 8 28 24 31 36 3 12 12 25 20 28 17 7 20 91 3 102
-17 10 -29 -16 -29 -63 0 -32 -4 -43 -15 -43 -8 0 -15 -6 -15 -12 0 -7 -11
-18 -25 -25 -38 -17 -95 3 -107 39 -6 15 -14 28 -19 28 -5 0 -9 52 -9 115 0
111 1 116 23 124 22 8 67 -5 67 -20 0 -4 9 -11 20 -14 11 -3 20 -13 20 -21 0
-8 7 -14 15 -14 10 0 15 -10 15 -29 0 -31 27 -51 36 -26 3 7 19 17 35 20 16 4
29 10 29 15 0 10 -25 20 -49 20 -9 0 -32 16 -51 35 -19 19 -40 35 -46 35 -7 0
-15 12 -18 26 -9 34 14 57 70 71 47 12 144 -3 157 -24 4 -7 15 -13 22 -13 12
0 15 -15 15 -64 0 -55 -3 -64 -20 -69 -11 -3 -20 -10 -20 -16 0 -20 31 -11 57
17 22 24 24 33 19 76 -3 29 -12 53 -21 58 -8 5 -15 16 -15 23 0 8 -6 15 -14
15 -7 0 -19 6 -26 14 -6 8 -28 16 -48 18 -32 3 -37 7 -40 31 -2 19 1 27 12 27
9 0 16 8 16 19 0 14 10 21 36 26 39 7 36 21 -6 27 -57 7 -15 98 46 98 20 0 24
-5 24 -29 0 -20 -6 -30 -20 -34 -23 -6 -27 -37 -5 -37 25 0 55 38 55 70 0 17
-4 30 -10 30 -20 0 -9 27 15 38 14 6 25 16 25 22 0 5 9 10 19 10 18 0 19 8 19
135 0 109 -3 135 -14 135 -8 0 -14 5 -14 10 0 6 -16 10 -35 10 -19 0 -35 -4
-35 -10 0 -5 -6 -10 -14 -10 -7 0 -16 -9 -19 -20 -4 -16 -14 -20 -46 -20 -22
0 -43 -6 -48 -13 -4 -8 -16 -16 -25 -20 -11 -4 -18 -17 -18 -31 0 -24 -21 -36
-67 -36 -16 0 -23 -8 -28 -30 -4 -16 -11 -30 -16 -30 -5 0 -9 -22 -9 -49 0
-45 -3 -51 -29 -64 -33 -16 -41 -13 -41 15 0 10 -8 22 -17 25 -10 4 -22 12
-26 20 -11 19 -67 17 -67 -2 0 -9 9 -15 21 -15 22 0 58 -36 59 -57 0 -7 7 -13
15 -13 12 0 15 -16 15 -80 0 -77 -1 -80 -26 -86 -35 -9 -74 13 -74 43 0 14 -6
23 -15 23 -8 0 -15 4 -15 10 0 5 -20 23 -45 40 -43 30 -58 61 -35 75 6 3 10
14 10 24 0 10 9 21 20 24 11 3 20 10 20 16 0 17 -37 13 -44 -4 -6 -16 -66 -21
-66 -6 0 19 -47 61 -68 61 -11 0 -22 7 -26 15 -9 24 -67 20 -73 -5 -3 -11 -9
-20 -14 -20 -5 0 -9 -29 -9 -65 0 -36 4 -65 9 -65 9 0 21 57 21 103 0 23 4 27
29 27 16 0 34 -7 41 -15 7 -8 19 -15 27 -15 25 0 63 -43 63 -72 0 -26 -3 -28
-45 -28 -32 0 -47 -5 -52 -15 -4 -11 -16 -15 -37 -13 -27 3 -31 0 -34 -23 -3
-28 13 -79 26 -79 4 0 13 12 20 28 33 71 34 72 83 72 32 0 53 -6 69 -20 13
-11 29 -20 37 -20 18 0 73 -57 73 -75 0 -8 7 -15 15 -15 30 0 16 -40 -22 -62
l-36 -22 34 -15 c46 -21 46 -21 26 -32 -9 -6 -17 -17 -17 -24 0 -8 -9 -15 -20
-15 -11 0 -20 -7 -20 -15 0 -8 -4 -15 -9 -15 -6 0 -33 -22 -62 -50 -48 -46
-56 -50 -99 -50 -33 0 -50 5 -54 15 -3 8 -12 15 -20 15 -18 0 -31 58 -22 95 6
24 39 65 52 65 3 0 24 9 48 20 39 17 86 27 140 29 43 2 5 11 -65 17 -93 7 -97
8 -109 39 -13 34 -30 32 -30 -5 0 -20 5 -30 15 -30 8 0 15 -7 15 -15 0 -8 -7
-15 -15 -15 -8 0 -15 -7 -15 -15 0 -8 -6 -15 -13 -15 -14 0 -47 35 -47 50 0 6
-9 10 -20 10 -11 0 -20 7 -20 15 0 8 -7 15 -15 15 -8 0 -23 8 -34 19 -24 24
-67 34 -91 21 -17 -9 -20 -21 -20 -90 0 -43 4 -81 9 -84 14 -9 21 20 21 80 l0
54 35 0 c24 0 35 -5 35 -15 0 -8 9 -15 20 -15 11 0 34 -15 50 -32 29 -32 30
-36 25 -113 -3 -63 -1 -83 12 -97 9 -10 21 -18 26 -18 5 0 20 -11 33 -26 20
-20 24 -36 24 -85 0 -59 0 -59 -30 -59 -16 0 -30 4 -30 9 0 12 -47 61 -60 61
-5 0 -10 7 -10 15 0 8 -7 15 -15 15 -8 0 -15 7 -15 15 0 9 -7 18 -15 21 -8 4
-15 14 -15 25 0 10 -9 26 -19 36 -11 10 -21 35 -23 57 -2 22 -9 41 -15 44 -20
6 -17 -94 2 -102 8 -3 15 -15 15 -27 0 -22 15 -40 122 -151 64 -68 66 -70 52
-96 -8 -15 -14 -33 -14 -39 0 -7 -4 -13 -9 -13 -5 0 -11 -9 -14 -21 -4 -13
-12 -19 -24 -17 -16 3 -18 12 -14 86 2 67 0 82 -12 82 -8 0 -17 9 -20 20 -4
17 -14 20 -55 20 -60 0 -82 -7 -82 -26 0 -28 -56 -13 -60 16 -5 32 1 46 35 84
39 44 39 60 0 102 -21 23 -29 25 -65 19 -36 -6 -40 -10 -40 -36 0 -19 5 -29
15 -29 8 0 15 7 15 16 0 11 8 14 33 12 26 -2 33 -8 35 -29 2 -21 -2 -28 -22
-33 -15 -3 -37 -4 -51 0 -21 5 -25 3 -25 -15 0 -12 6 -21 15 -21 33 0 46 -99
24 -186 -6 -24 -14 -44 -18 -44 -3 1 -16 9 -28 19 -18 15 -23 30 -23 63 0 25
-7 54 -17 68 -10 13 -18 42 -19 64 -2 25 -9 45 -21 54 -17 12 -17 14 -1 26 10
7 20 32 24 55 6 38 4 43 -15 48 -11 3 -21 12 -21 19 0 9 -12 14 -35 14 -24 0
-35 -5 -35 -15 0 -8 -7 -15 -16 -15 -12 0 -14 -10 -12 -47 3 -44 5 -48 31 -51
16 -2 27 -9 27 -19 0 -8 9 -17 20 -20 16 -4 20 -14 20 -43 0 -21 7 -45 15 -54
14 -13 13 -16 -4 -26 -11 -5 -40 -10 -65 -10 -39 0 -46 3 -46 20 0 11 -7 20
-15 20 -11 0 -15 12 -15 45 0 57 -22 85 -67 85 -26 0 -33 -4 -33 -20 0 -11 -7
-20 -15 -20 -23 0 -18 -46 9 -74 16 -18 34 -26 56 -26 43 0 80 -35 80 -77 0
-17 6 -34 13 -37 6 -3 2 -3 -10 0 -18 4 -24 0 -29 -20 -7 -28 -44 -37 -44 -11
0 9 -9 15 -25 15 -13 0 -28 8 -34 18 -8 14 -25 17 -116 17 -91 0 -108 -3 -116
-18 -6 -9 -17 -17 -26 -17 -11 0 -14 -6 -9 -22 3 -13 6 -26 6 -30 0 -5 6 -8
13 -8 8 0 22 -9 32 -20 10 -11 24 -20 30 -20 7 0 15 -7 19 -15 3 -8 12 -15 21
-15 8 0 15 -7 15 -15 0 -8 6 -15 13 -15 7 0 24 -11 39 -25 24 -22 25 -28 17
-65 -10 -45 -3 -110 12 -110 5 0 9 -6 9 -14 0 -7 21 -33 48 -58 46 -43 47 -45
32 -71 -9 -17 -23 -27 -38 -27 -12 0 -25 -7 -28 -15 -4 -8 -11 -15 -16 -15
-15 0 -58 -43 -58 -57 0 -7 -6 -13 -14 -13 -8 0 -16 -7 -20 -15 -12 -32 -26
-13 -26 35 0 38 4 50 15 50 11 0 15 12 15 50 0 38 4 50 15 50 8 0 15 9 15 20
0 11 5 20 11 20 16 0 -1 42 -28 68 -13 12 -33 22 -43 22 -30 0 -40 31 -40 119
l0 81 -34 0 c-18 0 -39 7 -46 15 -7 8 -19 15 -27 15 -8 0 -26 9 -40 20 -14 11
-32 20 -39 20 -8 0 -14 7 -14 15 0 8 -7 15 -15 15 -8 0 -15 7 -15 15 0 8 -7
15 -15 15 -9 0 -25 9 -37 20 -12 11 -29 20 -39 20 -9 0 -22 7 -29 15 -10 12
-37 15 -122 15 -87 0 -110 3 -114 15 -4 8 -15 15 -25 15 -10 0 -28 9 -39 20
-11 11 -25 20 -30 20 -6 0 -13 7 -16 15 -4 9 -19 15 -35 15 -19 0 -29 5 -29
15 0 8 -6 15 -14 15 -8 0 -16 7 -20 15 -3 8 -12 15 -21 15 -8 0 -15 -7 -15
-15 0 -8 -7 -15 -15 -15 -8 0 -15 -8 -15 -18 0 -20 -59 -82 -78 -82 -7 0 -15
-7 -18 -15 -4 -8 -15 -15 -25 -15 -10 0 -19 -6 -19 -14 0 -8 -13 -19 -30 -25
-16 -5 -30 -15 -30 -20 0 -6 -8 -11 -19 -11 -10 0 -24 -7 -31 -15 -7 -8 -21
-15 -31 -15 -11 0 -19 -6 -19 -14 0 -9 -18 -16 -50 -20 -27 -4 -50 -11 -50
-15 0 -5 -14 -14 -31 -20 -30 -10 -31 -13 -26 -48 4 -21 11 -39 17 -41 19 -7
10 -55 -16 -78 -14 -13 -27 -24 -28 -24 -8 0 -86 -83 -86 -91 0 -5 -7 -9 -15
-9 -8 0 -15 -7 -15 -15 0 -8 -4 -15 -9 -15 -5 0 -16 -13 -24 -28 -12 -25 -12
-31 2 -53 9 -13 19 -25 24 -27 4 -2 7 -10 7 -18 0 -8 7 -14 15 -14 8 0 15 -6
15 -13 0 -8 9 -22 20 -32 11 -10 20 -26 20 -37 0 -10 7 -18 15 -18 10 0 15
-10 15 -29 0 -36 -16 -49 -25 -21 -3 11 -13 20 -21 20 -8 0 -14 5 -14 10 0 10
-76 90 -85 90 -9 0 -45 40 -45 50 0 6 -14 10 -30 10 -24 0 -33 6 -40 26 -14
36 -13 44 10 44 11 0 20 7 20 15 0 8 6 15 14 15 8 0 18 10 22 22 3 12 13 28
20 36 9 9 14 38 14 88 0 75 0 76 40 115 21 21 43 39 49 39 5 0 11 7 15 15 3 8
17 15 31 15 15 0 25 6 25 14 0 7 8 16 19 19 10 2 20 16 23 31 4 21 -2 31 -29
52 -32 24 -40 26 -129 22 -77 -2 -98 -6 -108 -20 -7 -10 -20 -18 -29 -18 -8 0
-17 -7 -21 -15 -3 -8 -17 -15 -31 -15 -22 0 -25 4 -25 35 0 24 -5 35 -15 35
-8 0 -15 7 -15 15 0 8 5 15 10 15 6 0 10 6 10 14 0 20 44 46 78 46 33 0 72 32
72 60 0 29 -11 50 -26 50 -8 0 -14 7 -14 15 0 24 -52 18 -77 -9 -17 -18 -23
-36 -23 -70 0 -34 -4 -46 -15 -46 -8 0 -15 -7 -15 -15 0 -11 -12 -15 -50 -15
l-50 0 0 45 c0 25 5 51 10 58 42 50 61 67 75 67 11 0 15 11 15 49 0 59 -18 81
-66 81 -27 0 -34 -4 -34 -20 0 -16 7 -20 35 -20 32 0 35 -3 35 -27 0 -16 -7
-36 -14 -46 -12 -15 -14 -16 -20 -2 -3 8 -12 15 -20 15 -8 0 -16 11 -18 25 -4
33 -22 33 -26 0 -2 -16 2 -27 12 -31 21 -8 23 -94 2 -94 -9 0 -18 -21 -25 -62
-6 -35 -15 -64 -21 -66 -5 -2 -10 -23 -10 -46 0 -50 -3 -55 -34 -49 -19 4 -25
13 -29 48 -9 66 3 175 19 175 8 0 14 7 14 15 0 8 7 15 15 15 10 0 15 11 15 35
0 23 -5 35 -14 35 -7 0 -16 9 -19 21 -5 17 -12 20 -49 17 -35 -2 -44 -7 -46
-25 -3 -20 1 -21 45 -20 44 2 48 0 51 -23 2 -20 -3 -28 -28 -37 -17 -6 -32 -7
-36 -2 -10 17 -34 9 -34 -11 0 -11 7 -20 15 -20 11 0 15 -12 15 -50 0 -46 -2
-50 -25 -50 -14 0 -29 8 -35 20 -8 16 -21 20 -58 20 -53 0 -59 -3 -90 -44 -27
-35 -31 -113 -7 -122 8 -4 15 -15 15 -26 0 -16 -5 -19 -22 -14 -13 3 -26 6
-30 6 -4 0 -10 9 -13 20 -3 11 -12 20 -18 20 -7 0 -13 18 -14 45 -1 33 2 45
13 45 8 0 14 7 14 15 0 8 9 15 20 15 11 0 20 7 20 15 0 9 7 18 15 21 8 4 15
12 15 20 0 8 7 14 15 14 8 0 15 7 15 15 0 8 9 23 20 32 11 10 20 25 20 34 0 9
7 19 15 23 10 4 15 20 15 51 0 32 4 45 14 45 16 0 30 112 24 185 -3 39 -4 40
-47 43 -34 3 -48 -1 -63 -17 -10 -12 -25 -21 -32 -21 -8 0 -16 -7 -20 -15 -3
-8 -12 -15 -20 -15 -7 0 -17 -11 -20 -24 -9 -36 -45 -44 -67 -15 -18 24 -11
49 18 74 7 5 16 33 19 60 4 28 11 56 17 63 6 7 12 49 15 92 4 67 2 81 -12 86
-9 3 -16 12 -16 20 0 9 -12 14 -35 14 -24 0 -35 -5 -35 -15 0 -8 -14 -17 -35
-21 -20 -3 -35 -12 -35 -20 0 -8 -7 -14 -15 -14 -8 0 -15 -7 -15 -15 0 -8 -7
-15 -16 -15 -8 0 -22 7 -30 15 -18 17 -64 20 -64 4 0 -6 9 -13 20 -16 11 -3
20 -11 20 -18 0 -7 7 -15 15 -19 9 -3 15 -18 15 -36 0 -20 -5 -30 -15 -30 -8
0 -15 -6 -15 -14 0 -8 -11 -17 -25 -20 -13 -3 -30 -16 -36 -29 -7 -12 -18 -26
-25 -30 -8 -4 -14 -14 -14 -21 0 -17 -42 -28 -75 -20 -23 6 -25 10 -25 69 0
62 19 104 57 128 7 4 13 14 13 21 0 8 14 16 31 20 34 6 31 26 -4 26 -24 -1
-67 -32 -67 -49 0 -6 -6 -11 -14 -11 -8 0 -17 -8 -21 -17 -6 -17 -7 -17 -16 0
-6 9 -17 17 -24 17 -16 0 -16 1 -20 71 -3 55 -28 89 -67 89 -16 0 -28 4 -28
10 0 5 -17 27 -38 50 -27 27 -47 40 -65 40 -15 0 -36 9 -47 20 -11 11 -27 20
-35 20 -8 0 -15 5 -15 10 0 18 -64 9 -82 -11z m78 -24 c4 -8 12 -15 20 -15 10
0 14 -14 14 -50 0 -44 -3 -50 -21 -50 -25 0 -79 52 -79 76 0 39 54 71 66 39z
m4838 -1 c20 -53 -16 -114 -68 -114 -24 0 -26 3 -26 41 0 30 6 48 23 64 26 27
62 31 71 9z m-4698 -76 c30 -29 30 -59 1 -86 -21 -20 -25 -21 -45 -6 -28 19
-31 80 -4 100 22 17 20 18 48 -8z m4567 -15 c10 -59 0 -83 -34 -83 -18 0 -29
5 -29 14 0 8 -5 16 -12 18 -8 3 -6 17 7 46 14 31 25 42 41 42 17 0 23 -7 27
-37z m-4687 -80 c14 -15 22 -33 19 -41 -3 -7 -5 -18 -5 -23 0 -5 -13 -9 -30
-9 -19 0 -30 5 -30 14 0 7 -9 16 -20 19 -20 5 -28 45 -13 60 15 16 56 5 79
-20z m222 21 c18 -5 22 -13 22 -50 0 -42 -1 -44 -29 -44 -23 0 -30 5 -34 29
-6 29 1 71 12 71 3 0 16 -3 29 -6z m4340 0 c16 -5 22 -14 22 -35 0 -19 -5 -29
-15 -29 -8 0 -15 -7 -15 -15 0 -17 -4 -18 -48 -9 -28 6 -30 8 -20 28 6 11 17
25 24 29 8 4 14 15 14 22 0 17 5 18 38 9z m262 -24 c0 -38 -32 -70 -70 -70
-26 0 -30 4 -30 26 0 35 38 74 73 74 23 0 27 -4 27 -30z m-4050 -90 l0 -80
-30 0 c-20 0 -30 5 -30 15 0 11 -12 15 -50 15 -38 0 -50 4 -50 15 0 23 60 85
82 85 10 0 18 7 18 15 0 10 10 15 30 15 l30 0 0 -80z m-630 30 c12 -22 4 -60
-14 -72 -18 -13 -46 -9 -46 6 0 8 -7 16 -15 20 -18 7 -20 52 -2 59 30 13 67 6
77 -13z m4540 -18 c0 -31 -5 -41 -25 -52 -22 -12 -27 -11 -45 5 -11 10 -20 31
-20 46 0 29 11 36 63 38 25 1 27 -2 27 -37z m-4410 -47 c0 -8 9 -15 20 -15 19
0 20 -7 20 -99 0 -90 -2 -99 -20 -104 -11 -3 -20 -12 -20 -21 0 -17 -11 -19
-59 -10 -17 4 -31 13 -31 20 0 8 -7 14 -15 14 -8 0 -15 7 -15 15 0 8 -9 20
-20 27 -15 10 -20 24 -20 54 0 28 6 47 20 59 11 10 20 24 20 32 0 7 6 13 14
13 8 0 16 7 20 15 3 10 19 15 46 15 29 0 40 -4 40 -15z m4280 0 c0 -8 9 -15
20 -15 11 0 20 -6 20 -14 0 -8 7 -16 15 -20 11 -4 15 -22 15 -71 0 -51 -3 -65
-15 -65 -8 0 -15 -7 -15 -15 0 -8 -9 -15 -20 -15 -11 0 -20 -7 -20 -15 0 -8
-7 -15 -15 -15 -9 0 -18 -7 -21 -15 -5 -12 -9 -12 -30 3 -13 9 -24 22 -24 28
0 7 -9 14 -20 17 -18 5 -20 13 -20 79 0 80 7 118 22 118 5 0 16 7 24 15 9 8
31 15 50 15 24 0 34 -5 34 -15z m-4500 -30 c0 -8 7 -15 15 -15 20 0 20 -59 1
-66 -22 -8 -56 32 -56 66 0 23 4 30 20 30 11 0 20 -7 20 -15z m657 -35 c3 -11
12 -20 19 -20 10 0 14 -13 14 -45 0 -33 -4 -45 -15 -45 -8 0 -15 -9 -15 -20 0
-17 -7 -20 -42 -21 -24 0 -63 -4 -88 -8 l-45 -7 60 -8 c82 -11 172 -62 187
-107 8 -24 28 2 28 37 0 24 5 34 15 34 8 0 15 5 15 10 0 13 37 50 50 50 5 0
13 6 17 14 4 8 19 16 33 18 25 3 25 3 28 -90 2 -73 -1 -96 -13 -108 -8 -9 -15
-28 -15 -44 0 -19 -12 -40 -35 -64 -19 -20 -35 -42 -35 -49 -1 -21 -98 -109
-116 -105 -20 4 -52 87 -37 97 5 3 15 21 22 39 10 24 20 32 37 32 19 0 26 7
31 30 3 17 9 30 14 30 5 0 9 14 9 30 0 17 -4 30 -10 30 -5 0 -10 -13 -10 -30
0 -20 -5 -30 -15 -30 -8 0 -15 -6 -15 -14 0 -8 -9 -18 -20 -21 -11 -3 -20 -11
-20 -16 0 -5 -20 -9 -45 -9 -47 0 -52 3 -144 88 -25 23 -51 42 -57 42 -14 0
-28 46 -19 60 4 6 13 10 21 10 8 0 14 7 14 15 0 8 -6 15 -13 15 -12 0 -47 34
-47 46 0 12 68 84 80 84 5 0 10 7 10 15 0 8 6 15 13 15 6 0 23 9 37 20 35 28
110 28 117 0z m-283 -156 c20 -8 23 -84 3 -84 -7 0 -20 -9 -30 -20 -20 -24
-87 -28 -87 -5 0 7 -7 18 -16 23 -14 8 -13 13 9 45 13 20 27 33 31 30 3 -4 6
-1 6 5 0 13 57 16 84 6z m4002 -20 c28 -29 31 -60 7 -86 -26 -29 -65 -22 -106
19 -39 38 -47 63 -22 63 8 0 15 7 15 15 0 11 11 15 41 15 32 0 47 -6 65 -26z
m-3956 -118 c0 -8 9 -18 20 -21 11 -3 20 -11 20 -16 0 -5 7 -9 15 -9 8 0 15
-6 15 -13 0 -8 16 -27 35 -43 21 -17 35 -38 35 -52 0 -12 6 -31 12 -42 10 -16
10 -24 0 -40 -6 -11 -12 -27 -12 -35 0 -8 -7 -15 -15 -15 -9 0 -18 -7 -21 -15
-8 -19 -104 -22 -104 -2 0 6 -13 18 -30 25 -21 10 -30 21 -30 36 0 13 -9 31
-21 41 -18 17 -19 26 -13 98 4 51 13 86 23 98 20 21 71 25 71 5z m3874 -2 c3
-9 6 -58 6 -110 0 -75 -4 -103 -20 -134 -11 -22 -27 -40 -36 -40 -8 0 -17 -7
-20 -15 -8 -20 -102 -21 -110 -1 -3 8 -14 16 -25 19 -16 4 -19 14 -19 71 0 53
4 70 20 86 11 11 20 25 20 30 0 6 7 10 15 10 8 0 15 5 15 10 0 13 32 45 53 53
9 3 17 13 17 22 0 22 76 21 84 -1z m-854 -59 c0 -32 -2 -35 -30 -35 -28 0 -30
3 -30 35 0 32 2 35 30 35 28 0 30 -3 30 -35z m-2780 -105 c0 -5 -7 -10 -15
-10 -8 0 -15 5 -15 10 0 6 7 10 15 10 8 0 15 -4 15 -10z m760 -20 c0 -27 -3
-30 -30 -30 -27 0 -30 3 -30 30 0 27 3 30 30 30 27 0 30 -3 30 -30z m1854 14
c13 -34 7 -44 -29 -44 -32 0 -35 2 -35 30 0 26 3 30 29 30 17 0 31 -6 35 -16z
m756 6 c0 -5 -4 -10 -10 -10 -5 0 -10 5 -10 10 0 6 5 10 10 10 6 0 10 -4 10
-10z m-1788 -70 c7 -11 20 -20 29 -20 9 0 22 -7 29 -15 7 -8 21 -15 31 -15 11
0 19 -7 19 -15 0 -9 9 -15 24 -15 14 0 31 -7 40 -15 8 -8 18 -15 22 -15 34 0
144 -75 144 -99 0 -6 7 -11 15 -11 11 0 15 -12 15 -45 0 -33 -4 -45 -15 -45
-8 0 -15 7 -15 15 0 8 -9 15 -19 15 -11 0 -26 7 -35 15 -10 10 -35 15 -75 15
-38 0 -63 5 -68 13 -4 7 -22 23 -39 35 -29 20 -46 22 -200 24 -106 2 -168 7
-167 13 1 6 11 11 23 13 11 2 20 10 20 18 0 8 7 14 15 14 8 0 24 9 35 20 11
11 27 20 35 20 8 0 15 7 15 15 0 8 7 15 15 15 8 0 15 6 15 14 0 8 7 16 15 20
8 3 15 12 15 21 0 23 47 19 62 -5z m1798 -36 c0 -8 6 -14 13 -14 6 0 17 -11
23 -23 12 -26 2 -50 -31 -78 -11 -9 -33 -29 -50 -43 -16 -14 -34 -25 -40 -23
-18 6 -18 79 -1 89 9 5 16 16 16 25 0 10 12 34 26 55 26 37 44 42 44 12z
m-3400 -4 c11 -11 20 -28 20 -39 0 -10 6 -24 14 -30 30 -25 31 -111 1 -111 -7
0 -15 9 -18 20 -3 11 -12 20 -21 20 -9 0 -16 7 -16 15 0 8 -6 15 -13 15 -18 0
-47 37 -47 59 0 10 7 24 15 31 8 7 15 19 15 26 0 20 27 17 50 -6z m314 -25 c3
-8 12 -15 21 -15 8 0 15 -7 15 -15 0 -9 7 -18 15 -21 8 -4 15 -12 15 -19 0 -8
6 -20 14 -27 14 -15 31 -58 28 -70 -1 -5 2 -8 7 -8 9 0 13 -20 25 -115 2 -16
8 -29 13 -28 5 1 10 -40 12 -93 2 -63 -1 -94 -9 -94 -6 0 -13 7 -16 15 -4 8
-12 15 -20 15 -8 0 -14 7 -14 15 0 8 -7 15 -16 15 -8 0 -22 7 -30 15 -9 8 -26
15 -40 15 -13 0 -24 5 -24 10 0 6 -3 9 -7 8 -5 -1 -21 4 -36 10 -16 7 -70 12
-122 12 -53 0 -97 4 -100 10 -4 6 -10 8 -14 6 -4 -3 -30 9 -57 27 -60 39 -70
78 -31 120 19 22 35 27 88 31 53 4 157 -8 124 -14 -5 -1 6 -7 25 -15 19 -7 34
-18 33 -24 -2 -6 4 -11 12 -11 9 0 18 -7 21 -15 4 -8 10 -15 14 -15 15 0 82
-65 91 -87 10 -26 31 -30 49 -8 10 12 10 15 -4 15 -9 0 -16 8 -16 20 0 11 -7
20 -15 20 -8 0 -15 9 -15 20 0 11 -7 20 -15 20 -8 0 -15 6 -15 13 0 6 -16 28
-35 47 -19 19 -35 40 -35 47 0 7 -7 13 -15 13 -8 0 -15 6 -15 14 0 7 -7 19
-15 26 -18 15 -20 82 -3 110 16 25 102 29 112 5z m2850 -20 c14 -72 -4 -107
-119 -226 -8 -9 -15 -21 -15 -27 0 -7 -5 -12 -10 -12 -6 0 -15 -11 -22 -25 -6
-13 -14 -22 -18 -20 -9 6 -21 -35 -14 -47 9 -14 34 -9 34 7 0 8 7 15 15 15 9
0 18 7 22 16 7 19 70 84 81 84 4 0 15 9 25 20 9 11 23 20 31 20 8 0 19 8 25
17 8 14 24 17 98 17 78 -1 93 -4 111 -22 34 -34 30 -88 -10 -124 -17 -15 -40
-28 -50 -28 -10 0 -18 -4 -18 -8 0 -5 -48 -10 -107 -11 -124 -3 -153 -8 -153
-27 0 -11 28 -14 145 -14 120 0 147 -3 151 -15 4 -9 19 -15 35 -15 20 0 29 -5
29 -16 0 -9 9 -18 20 -21 11 -3 20 -12 20 -19 0 -8 7 -14 15 -14 8 0 15 -7 15
-15 0 -8 7 -15 15 -15 9 0 15 -9 15 -24 0 -14 6 -31 13 -38 8 -7 17 -31 21
-51 4 -21 14 -41 22 -44 20 -7 21 -173 0 -173 -7 0 -19 7 -26 15 -7 8 -23 15
-36 15 -15 0 -24 6 -24 15 0 8 -9 15 -20 15 -17 0 -83 44 -135 89 -23 20 -45
52 -45 66 0 8 -7 15 -15 15 -8 0 -15 7 -15 15 0 7 -6 18 -13 22 -7 4 -20 20
-30 36 -10 15 -24 27 -33 27 -8 0 -17 7 -20 15 -5 12 -26 15 -105 15 -81 0
-99 3 -99 15 0 25 38 55 71 55 24 0 30 4 27 18 -4 21 -54 19 -79 -4 -8 -8 -23
-14 -32 -14 -9 0 -17 -7 -17 -16 0 -9 -9 -18 -20 -21 -11 -3 -20 -9 -20 -12 0
-4 -6 -8 -13 -8 -17 0 -22 74 -6 93 6 8 13 33 16 57 10 112 15 147 22 147 4 0
7 8 8 18 2 29 22 72 33 72 5 0 10 8 10 18 0 9 19 39 42 65 40 45 45 47 94 47
51 0 52 0 58 -35z m-3390 -14 c6 -5 26 -12 44 -16 30 -6 32 -9 32 -51 0 -32
-4 -44 -15 -44 -8 0 -15 -7 -15 -16 0 -9 -9 -18 -20 -21 -11 -3 -20 -12 -20
-19 0 -9 -11 -14 -28 -14 -16 0 -37 -7 -48 -15 -10 -8 -30 -15 -44 -15 -14 0
-34 -6 -45 -14 -11 -7 -40 -16 -65 -19 -24 -3 -49 -13 -56 -21 -17 -24 -34
-19 -35 12 -2 47 2 67 17 75 8 4 14 19 14 31 0 13 7 26 15 30 8 3 15 12 15 21
0 8 7 15 15 15 8 0 15 7 15 15 0 8 7 15 15 15 9 0 18 6 21 14 3 8 18 18 34 21
16 3 34 13 41 22 10 11 24 14 58 9 24 -3 49 -10 55 -15z m841 -1 c3 -11 13
-20 21 -20 15 0 17 -27 15 -180 -1 -49 -8 -96 -16 -112 -7 -15 -16 -42 -20
-60 -4 -18 -13 -40 -20 -48 -7 -8 -15 -24 -17 -35 -2 -13 -12 -21 -29 -23
l-26 -3 -8 113 c-4 62 -7 121 -7 131 1 9 -3 17 -7 17 -4 0 -8 32 -9 70 -2 40
1 70 7 70 5 0 12 14 16 31 9 42 34 67 67 68 18 1 29 -5 33 -19z m2218 -15 c9
-19 21 -35 27 -35 7 0 10 -42 9 -122 -2 -130 -5 -161 -18 -153 -5 2 -9 -28
-10 -68 -1 -39 -6 -76 -11 -81 -16 -16 -60 11 -60 37 0 12 -6 32 -14 43 -8 11
-17 37 -21 57 -4 20 -11 37 -17 37 -5 0 -6 5 -3 10 3 6 2 10 -3 10 -5 0 -10
49 -11 110 -2 98 0 111 19 130 11 11 20 29 20 40 0 17 7 20 38 20 34 0 40 -4
55 -35z m-817 -20 c9 -8 24 -15 34 -15 10 0 20 -7 24 -15 3 -8 12 -15 19 -15
8 0 22 -9 32 -20 10 -11 24 -20 32 -20 7 0 13 -7 13 -15 0 -8 9 -15 19 -15 10
0 21 -7 25 -15 3 -8 17 -15 31 -15 14 0 28 -6 31 -14 3 -8 19 -18 35 -21 28
-6 29 -8 29 -68 0 -64 -17 -97 -50 -97 -9 0 -25 -7 -36 -15 -10 -8 -27 -15
-36 -15 -10 0 -18 -7 -18 -15 0 -8 -5 -15 -11 -15 -13 0 -48 41 -49 56 0 6 -7
17 -15 24 -8 7 -15 21 -15 31 0 11 -9 27 -20 36 -11 10 -20 23 -20 30 0 6 -12
13 -27 15 -27 3 -28 6 -33 68 -4 48 -11 73 -29 98 -14 17 -28 32 -33 32 -4 0
-8 7 -8 15 0 10 10 15 31 15 17 0 37 -7 45 -15z m-1006 -45 c0 -23 -4 -30 -20
-30 -11 0 -29 -9 -40 -20 -11 -11 -22 -20 -25 -20 -3 0 -13 -8 -23 -17 -10
-10 -29 -25 -42 -33 -12 -8 -29 -21 -37 -29 -15 -15 -111 -20 -132 -7 -16 10
-14 56 3 56 8 0 17 14 21 30 4 17 10 30 15 30 5 0 12 9 15 20 3 11 13 20 21
20 8 0 17 7 20 15 5 12 27 15 115 15 l109 0 0 -30z m1560 15 c0 -8 9 -15 20
-15 11 0 20 -7 20 -15 0 -8 5 -15 10 -15 6 0 10 -6 10 -13 0 -7 9 -20 20 -30
13 -11 20 -29 20 -51 0 -31 -3 -34 -37 -39 -52 -9 -83 1 -116 35 -15 15 -33
28 -41 28 -8 0 -16 7 -20 15 -3 8 -15 15 -26 15 -11 0 -20 7 -20 15 0 8 -11
17 -25 21 -14 3 -25 12 -25 20 0 8 -4 14 -10 14 -5 0 -10 7 -10 15 0 12 19 15
115 15 96 0 115 -3 115 -15z m-900 -70 c0 -8 -7 -15 -15 -15 -8 0 -15 -4 -15
-9 0 -5 -14 -13 -32 -16 -17 -4 -38 -13 -45 -20 -7 -7 -35 -16 -63 -20 -27 -4
-50 -11 -50 -16 0 -5 -28 -9 -61 -9 -53 0 -65 -4 -85 -26 -13 -14 -24 -35 -24
-47 0 -12 -6 -34 -14 -48 -7 -14 -17 -48 -21 -75 -4 -27 -12 -58 -17 -69 -11
-19 -14 -36 -17 -82 -1 -25 -31 -32 -31 -8 0 8 -6 15 -13 15 -7 0 -23 13 -35
30 -20 27 -22 41 -22 169 0 111 -3 143 -15 155 -20 19 -19 21 10 51 21 20 36
25 74 25 27 0 62 7 77 15 43 22 414 22 414 0z m200 -65 c13 -11 27 -20 32 -20
15 0 38 -27 38 -44 0 -21 -48 -21 -97 -1 -40 17 -203 21 -203 5 0 -5 -16 -12
-35 -16 -19 -3 -35 -10 -35 -15 0 -5 -12 -15 -27 -22 -37 -16 -61 -41 -69 -72
-3 -14 -10 -25 -15 -25 -5 0 -9 -4 -9 -9 0 -5 -5 -22 -10 -36 l-10 -26 -26 20
c-15 12 -39 21 -54 21 -30 0 -69 43 -50 55 6 3 10 19 10 36 0 46 31 69 94 69
32 0 60 5 68 13 7 8 33 16 58 20 24 3 46 11 48 16 2 6 16 11 31 11 15 0 36 9
46 20 15 17 31 20 105 20 73 0 91 -3 110 -20z m-1060 -87 c12 -11 4 -110 -10
-127 -68 -83 -86 -96 -133 -96 l-47 0 0 41 c0 24 4 38 10 34 5 -3 12 12 16 34
3 22 13 42 20 45 8 3 14 11 14 18 1 19 34 55 56 61 20 5 65 -1 74 -10z m1845
-10 c6 -9 18 -25 28 -35 9 -10 17 -29 17 -43 0 -13 7 -28 15 -32 8 -5 18 -30
21 -56 l7 -47 -46 0 c-41 0 -51 5 -87 41 -22 22 -40 44 -40 49 0 4 -7 10 -15
14 -11 4 -15 21 -15 59 0 46 3 56 23 65 28 14 79 5 92 -15z m-940 7 c19 -7 18
-8 -7 -15 -15 -4 -29 -13 -32 -21 -3 -8 -12 -14 -20 -14 -7 0 -30 -17 -50 -37
-30 -31 -36 -45 -36 -80 0 -42 32 -93 59 -93 6 0 11 -7 11 -15 0 -12 17 -15
98 -15 80 1 101 4 120 19 12 11 22 26 22 35 0 9 5 16 10 16 6 0 10 16 10 35 0
19 -4 35 -10 35 -5 0 -10 7 -10 15 0 8 -7 15 -15 15 -9 0 -18 7 -21 15 -9 23
-89 19 -131 -6 -48 -30 -44 -67 11 -88 30 -11 41 -12 44 -3 2 7 12 12 23 12
13 0 19 7 19 21 0 17 -5 20 -32 17 -39 -4 -48 25 -10 30 25 4 102 -43 102 -62
0 -6 -12 -24 -26 -40 -23 -26 -31 -29 -92 -29 -87 0 -141 30 -142 80 0 32 36
83 58 83 6 0 15 8 21 17 14 26 196 26 215 1 7 -10 18 -18 25 -18 6 0 11 -7 11
-15 0 -8 7 -15 15 -15 12 0 15 -14 15 -65 0 -73 -11 -92 -87 -155 -28 -24
-206 -21 -260 5 -23 11 -43 26 -43 33 0 6 -9 12 -20 12 -11 0 -20 7 -20 15 0
8 -5 15 -11 15 -23 0 -49 43 -49 79 0 27 8 46 30 69 17 18 30 37 30 43 0 5 7
9 15 9 9 0 18 6 21 14 3 8 20 17 39 20 18 4 36 13 39 21 6 16 30 18 61 5z
m355 -57 c0 -13 6 -26 14 -29 8 -3 17 -17 21 -32 4 -15 11 -30 17 -33 18 -11
-1 -59 -27 -69 -14 -5 -25 -14 -25 -20 0 -5 -6 -10 -14 -10 -8 0 -16 -7 -20
-15 -14 -38 -26 -10 -26 63 0 79 -5 92 -53 144 -22 23 -23 23 28 35 51 12 85
-1 85 -34z m-1016 -39 c11 -4 14 -13 10 -31 -8 -30 14 -132 33 -154 7 -8 13
-21 13 -27 0 -7 7 -12 15 -12 9 0 18 -6 21 -14 3 -8 19 -18 35 -21 28 -6 29
-8 29 -67 0 -33 6 -74 14 -91 8 -18 16 -49 19 -70 3 -20 13 -44 21 -53 9 -8
16 -22 16 -30 0 -8 7 -17 15 -20 8 -4 15 -12 15 -20 0 -21 -38 -17 -57 6 -10
11 -23 20 -30 20 -7 0 -13 7 -13 15 0 8 -7 15 -15 15 -8 0 -15 7 -15 15 0 8
-4 15 -10 15 -11 0 -60 48 -60 59 0 5 -7 11 -15 15 -8 3 -15 16 -15 30 0 13
-7 26 -15 30 -8 3 -15 18 -15 33 0 16 -9 36 -20 46 -11 9 -20 23 -20 31 0 8
-7 16 -15 20 -8 3 -15 12 -15 21 0 8 -5 15 -10 15 -6 0 -16 12 -23 28 -6 15
-17 31 -24 35 -21 13 -16 55 7 62 11 3 20 13 20 21 0 8 7 14 15 14 8 0 15 5
15 11 0 12 41 59 52 59 3 0 13 -3 22 -6z m1384 -65 c2 -25 -3 -40 -18 -54 -14
-13 -20 -30 -20 -60 0 -27 -5 -45 -14 -48 -8 -3 -15 -27 -18 -62 -3 -31 -9
-60 -15 -63 -5 -4 -13 -20 -17 -35 -4 -16 -11 -34 -17 -40 -5 -7 -20 -26 -32
-43 -38 -53 -129 -127 -138 -113 -4 7 -1 22 7 33 11 16 14 64 14 223 0 174 2
203 15 203 8 0 15 6 15 14 0 8 12 24 28 35 15 12 33 26 41 33 19 16 78 25 126
18 37 -5 40 -7 43 -41z m-1062 -44 c4 -8 12 -15 19 -15 6 0 20 -9 30 -20 10
-11 24 -20 32 -20 7 0 13 -7 13 -15 0 -8 9 -15 20 -15 11 0 20 -7 20 -15 0 -8
6 -15 13 -15 8 0 22 -9 32 -20 10 -11 26 -20 37 -20 10 0 18 -6 18 -14 0 -10
17 -16 58 -20 31 -3 76 -8 100 -12 28 -4 42 -2 42 5 0 7 21 11 54 11 35 0 60
5 70 15 8 8 22 15 30 15 9 0 24 9 33 20 10 11 25 20 34 20 9 0 19 7 23 15 5
15 56 22 56 8 -1 -25 -14 -53 -26 -53 -8 0 -14 -9 -14 -20 0 -11 -7 -20 -15
-20 -8 0 -15 -6 -15 -13 0 -7 -13 -24 -30 -37 -16 -14 -29 -31 -30 -37 0 -7
-9 -13 -19 -13 -10 0 -21 -7 -25 -15 -3 -8 -16 -15 -29 -15 -14 0 -30 -7 -37
-15 -10 -12 -45 -15 -199 -15 l-187 0 -24 30 c-14 16 -31 29 -37 30 -7 0 -13
6 -13 14 0 7 -9 16 -20 19 -11 3 -20 12 -20 21 0 9 -4 16 -10 16 -5 0 -10 7
-10 15 0 8 -4 15 -9 15 -32 0 -77 118 -66 172 6 26 10 28 51 28 30 0 46 -5 50
-15z m764 -287 c0 -82 -3 -110 -15 -122 -8 -8 -18 -29 -21 -45 -4 -17 -11 -31
-15 -31 -5 0 -14 -11 -19 -25 -5 -14 -21 -30 -35 -37 -14 -6 -25 -15 -25 -20
0 -4 -8 -8 -17 -8 -10 0 -29 -9 -43 -20 -18 -14 -41 -20 -80 -20 -31 0 -68 -7
-85 -16 -23 -12 -46 -15 -94 -10 -36 3 -69 10 -75 16 -5 5 -24 10 -42 10 -17
0 -43 9 -57 20 -14 11 -32 20 -41 20 -9 0 -19 7 -22 15 -4 8 -14 15 -24 15
-10 0 -20 7 -24 15 -3 8 -11 15 -18 15 -8 0 -20 10 -28 22 -8 11 -23 28 -32
37 -10 8 -18 21 -18 28 0 6 -6 16 -14 20 -7 5 -16 32 -18 63 -3 30 -11 56 -17
58 -14 5 -15 112 -1 112 13 0 50 -37 50 -50 0 -14 75 -90 88 -90 7 0 12 -7 12
-15 0 -9 8 -19 18 -22 9 -4 23 -13 31 -21 19 -19 412 -14 419 6 2 6 16 12 31
12 15 0 37 9 49 20 12 11 26 20 32 20 6 0 13 7 16 15 4 8 12 15 20 15 8 0 14
7 14 15 0 8 7 15 15 15 8 0 15 9 15 20 0 11 4 20 9 20 6 0 18 13 27 30 26 44
34 21 34 -102z m-1064 -92 c3 -14 12 -27 20 -30 8 -3 14 -12 14 -21 0 -8 6
-15 13 -15 6 0 28 -16 46 -35 19 -19 43 -37 53 -41 10 -3 18 -10 18 -15 0 -5
9 -9 20 -9 11 0 20 -6 20 -14 0 -8 14 -18 32 -21 17 -4 38 -14 46 -21 7 -8 26
-14 42 -14 16 0 35 -6 42 -13 7 -8 38 -16 68 -19 79 -9 129 -36 130 -70 l0
-28 -169 0 c-137 0 -172 -3 -185 -15 -8 -8 -20 -15 -27 -15 -23 0 -49 33 -49
60 0 16 -7 30 -15 34 -8 3 -15 17 -15 31 0 14 -7 28 -15 31 -8 4 -15 11 -15
18 0 6 -16 24 -35 40 -22 19 -35 38 -35 53 0 13 -6 26 -14 29 -16 6 -30 82
-20 107 9 24 23 21 30 -7z m1262 -104 c0 -73 -4 -91 -21 -109 -11 -13 -26 -23
-34 -23 -7 0 -13 -7 -13 -15 0 -8 -8 -15 -18 -15 -11 0 -29 -9 -42 -20 -13
-11 -27 -20 -32 -20 -4 0 -8 -7 -8 -15 0 -8 -7 -15 -15 -15 -8 0 -15 -7 -15
-15 0 -8 -9 -15 -20 -15 -11 0 -20 -6 -20 -14 0 -32 -275 -33 -310 -1 -9 8
-24 15 -33 15 -9 0 -17 7 -17 15 0 8 -7 15 -15 15 -8 0 -15 9 -15 20 0 17 7
20 48 20 27 0 57 6 68 15 12 9 43 14 85 15 50 0 68 4 73 15 3 9 18 15 36 15
16 0 30 4 30 9 0 5 10 13 23 17 12 3 30 15 40 25 10 11 27 19 37 19 11 0 20 7
20 15 0 8 7 15 15 15 9 0 18 7 21 15 4 8 12 15 20 15 8 0 14 5 14 11 0 15 42
59 56 59 7 0 15 7 18 16 14 36 25 -3 24 -84z m-998 -46 c0 -11 -19 -15 -25 -6
-3 5 1 10 9 10 9 0 16 -2 16 -4z"/>
<path d="M987 2284 c-10 -11 3 -24 24 -24 10 0 19 7 19 15 0 15 -31 21 -43 9z"/>
<path d="M5610 2274 c0 -8 11 -14 25 -14 14 0 25 4 25 9 0 5 -11 11 -25 13
-17 4 -25 1 -25 -8z"/>
<path d="M1830 1441 c0 -5 -9 -11 -19 -14 -26 -7 -28 -95 -3 -104 10 -4 21
-11 25 -17 6 -8 10 -7 14 2 2 6 9 12 15 12 6 0 25 13 44 29 29 26 36 28 58 18
14 -7 26 -20 26 -29 0 -9 5 -20 10 -23 16 -10 25 26 12 44 -15 20 -19 29 -26
64 -8 36 -25 34 -33 -3 -8 -41 -16 -44 -47 -15 -15 14 -34 25 -42 25 -7 0 -14
5 -14 10 0 6 -4 10 -10 10 -5 0 -10 -4 -10 -9z m20 -31 c0 -13 7 -20 20 -20
11 0 20 -4 20 -10 0 -5 -9 -14 -20 -20 -11 -6 -20 -17 -20 -25 0 -8 -4 -15
-10 -15 -5 0 -10 9 -10 19 0 11 -5 23 -11 27 -8 4 -8 9 0 17 6 6 11 19 11 29
0 10 5 18 10 18 6 0 10 -9 10 -20z"/>
<path d="M2020 1306 c0 -8 -6 -16 -12 -19 -10 -3 -10 -7 1 -20 7 -10 17 -17
22 -17 15 0 59 -47 59 -65 0 -9 -9 -19 -20 -22 -11 -3 -20 -12 -20 -19 0 -9
-11 -14 -30 -14 -44 0 -73 -35 -67 -83 6 -47 6 -46 51 -54 31 -5 40 -2 61 21
26 28 32 65 15 82 -11 11 9 64 24 64 5 0 28 -16 52 -35 23 -19 47 -35 53 -35
6 0 11 -7 11 -15 0 -10 10 -15 30 -15 18 0 33 -6 36 -15 5 -11 23 -15 74 -15
38 0 71 4 74 9 6 10 -50 21 -106 21 -26 0 -38 4 -38 14 0 8 -14 17 -31 21 -17
4 -33 13 -36 21 -3 8 -11 14 -19 14 -8 0 -14 7 -14 15 0 8 -9 15 -20 15 -11 0
-20 7 -20 15 0 8 -7 15 -15 15 -8 0 -15 7 -15 15 0 8 -7 15 -15 15 -8 0 -15 9
-15 20 0 11 -6 20 -13 20 -6 0 -18 14 -25 30 -14 31 -32 40 -32 16z m30 -246
c0 -27 -3 -30 -30 -30 -27 0 -30 3 -30 30 0 27 3 30 30 30 27 0 30 -3 30 -30z"/>
<path d="M1938 1253 c-10 -2 -18 -9 -18 -14 0 -14 -67 -11 -74 4 -5 10 -7 10
-12 0 -3 -7 -14 -13 -25 -13 -10 0 -19 -6 -19 -14 0 -8 -7 -16 -15 -20 -17 -6
-20 -32 -4 -41 6 -4 13 2 16 13 2 11 13 22 24 25 10 3 19 12 19 21 0 9 5 16
10 16 6 0 10 -6 10 -14 0 -8 9 -18 20 -21 14 -4 20 -15 20 -36 0 -26 -3 -29
-34 -29 -21 0 -36 6 -40 15 -9 24 -26 17 -26 -10 0 -18 7 -28 26 -35 31 -12
74 -3 74 16 0 8 7 14 15 14 10 0 15 10 15 29 0 42 9 61 30 61 29 0 50 11 50
26 0 14 -26 17 -62 7z"/>
<path d="M2488 1043 c-31 -13 -38 -21 -38 -43 0 -18 -11 -36 -35 -56 -19 -16
-35 -35 -35 -42 0 -7 -7 -21 -16 -30 -19 -18 -14 -89 8 -104 15 -10 163 -7
174 5 14 14 -6 20 -81 25 l-75 5 0 33 c0 19 4 34 9 34 5 0 14 14 20 30 5 17
17 30 25 30 9 0 16 5 16 10 0 15 31 43 63 57 15 7 27 17 27 23 0 5 18 10 40
10 29 0 40 4 40 15 0 20 -91 19 -142 -2z"/>
</g>
</svg>
